<svg width="78" height="78" viewBox="0 0 78 78" fill="none" xmlns="http://www.w3.org/2000/svg">
<path d="M71.4743 34.8451C71.474 33.452 71.1625 32.0766 70.5626 30.8193C69.9627 29.562 69.0895 28.4546 68.0067 27.578C68.1015 27.1441 68.1507 26.7015 68.1535 26.2574C68.1445 24.5717 67.5333 22.9448 66.4301 21.6702C65.3269 20.3956 63.8044 19.5574 62.1374 19.3069C62.3408 18.2783 62.277 17.2147 61.9521 16.2178C61.6318 15.2782 61.1039 14.423 60.4075 13.7156C59.314 12.4301 57.8354 11.5311 56.1909 11.1517C56.0469 11.0901 55.8918 11.0585 55.7352 11.059H55.5036C55.0385 11.0341 54.5721 11.0626 54.1135 11.1439C53.7872 9.43193 52.8719 7.88818 51.5263 6.78057C50.7176 6.11295 49.7757 5.62567 48.7635 5.35132C47.7513 5.07696 46.6922 5.02185 45.657 5.18968C43.8933 5.4981 42.2958 6.42124 41.1479 7.79535C39.9999 9.16946 39.3758 10.9057 39.3861 12.6962V63.1723C39.3478 64.4292 39.5628 65.6811 40.0182 66.8533C40.4736 68.0255 41.1602 69.0941 42.0371 69.9955C42.914 70.8969 43.9633 71.6127 45.1225 72.1003C46.2817 72.5878 47.5272 72.8371 48.7848 72.8335C50.4633 72.8385 52.1126 72.3943 53.5616 71.5469C55.0105 70.6995 56.2063 69.4799 57.0249 68.0144C57.381 68.0925 57.7424 68.1441 58.1061 68.1689C60.3417 68.315 62.5437 67.5672 64.228 66.09C65.9123 64.6128 66.9409 62.5272 67.0877 60.2917C67.1488 59.3438 67.0442 58.3926 66.7788 57.4806C68.0275 56.5994 69.0776 55.4662 69.8614 54.1542C70.6452 52.8422 71.1453 51.3804 71.3294 49.8632C71.5135 48.346 71.3775 46.8071 70.9302 45.3457C70.483 43.8843 69.7344 42.5329 68.7327 41.3786C70.4716 39.647 71.4568 37.2991 71.4743 34.8451ZM69.1111 48.499C69.1135 49.8078 68.8178 51.1 68.2465 52.2775C67.6751 53.4551 66.8431 54.487 65.8135 55.295C65.0944 54.0402 64.058 52.9965 62.8083 52.2686C61.5585 51.5407 60.1393 51.1542 58.6931 51.1479C58.3858 51.1479 58.0912 51.27 57.8739 51.4872C57.6567 51.7044 57.5347 51.9991 57.5347 52.3063C57.5347 52.6136 57.6567 52.9082 57.8739 53.1254C58.0912 53.3427 58.3858 53.4647 58.6931 53.4647C59.9125 53.5023 61.0934 53.9001 62.0871 54.6079C63.0807 55.3157 63.8426 56.3018 64.2766 57.442C64.6341 58.2934 64.7926 59.2152 64.74 60.1372C64.6211 61.7546 63.8709 63.2604 62.6515 64.3296C61.432 65.3988 59.8411 65.9456 58.222 65.8521C57.7141 65.8125 57.2133 65.7087 56.7315 65.5432C56.4554 65.4523 56.1552 65.4686 55.8906 65.5888C55.6259 65.7089 55.4161 65.9242 55.3028 66.1919C54.6719 67.6756 53.5557 68.9009 52.1371 69.667C50.7185 70.4332 49.0817 70.6946 47.4951 70.4085C45.8402 70.0612 44.3576 69.1494 43.301 67.8294C42.2444 66.5093 41.6795 64.863 41.703 63.1723V12.6962C41.6843 11.4547 42.1062 10.2467 42.8937 9.28677C43.6812 8.3268 44.7834 7.6769 46.0046 7.45245C46.278 7.41092 46.5543 7.39027 46.8309 7.39067C48.0057 7.38679 49.1449 7.79384 50.0513 8.54136C50.5908 8.98572 51.0341 9.53539 51.3541 10.1568C51.6741 10.7782 51.8641 11.4583 51.9125 12.1556C50.9176 12.7902 50.098 13.6643 49.5286 14.6978C48.9592 15.7314 48.6583 16.8913 48.6535 18.0713C48.6535 18.3785 48.7755 18.6731 48.9928 18.8904C49.21 19.1076 49.5047 19.2297 49.8119 19.2297C50.1191 19.2297 50.4138 19.1076 50.631 18.8904C50.8483 18.6731 50.9703 18.3785 50.9703 18.0713C50.9728 16.8555 51.4422 15.6871 52.2816 14.8075C53.1209 13.9279 54.266 13.4043 55.4804 13.3449C56.3685 13.4299 57.3956 13.901 58.7085 15.2756C59.1647 15.7307 59.5131 16.2822 59.7279 16.8897C60.006 17.7744 59.9761 18.7272 59.643 19.5927C59.5998 19.7194 59.5789 19.8526 59.5812 19.9865C59.5812 19.9865 59.5812 20.0483 59.5812 20.0715C59.5354 20.2494 59.5326 20.4357 59.573 20.6149C59.6134 20.7941 59.6958 20.9612 59.8135 21.1022C59.9312 21.2433 60.0808 21.3544 60.2499 21.4263C60.4189 21.4981 60.6027 21.5288 60.7859 21.5156H61.0794C61.7034 21.5136 62.3217 21.6347 62.8987 21.8721C63.4758 22.1095 64.0004 22.4585 64.4423 22.899C64.8843 23.3395 65.2349 23.8629 65.4742 24.4392C65.7135 25.0155 65.8366 25.6334 65.8366 26.2574C65.8297 26.7437 65.7463 27.2258 65.5895 27.6861C65.5132 27.9248 65.5164 28.1818 65.5986 28.4185C65.6807 28.6552 65.8374 28.8589 66.0451 28.999C66.9478 29.5991 67.6988 30.4006 68.2387 31.3405C68.7786 32.2804 69.0928 33.3329 69.1565 34.415C69.2201 35.497 69.0315 36.5791 68.6055 37.5758C68.1795 38.5725 67.5277 39.4566 66.7016 40.1584C66.6415 40.2118 66.5871 40.2713 66.5394 40.336C65.349 41.1979 63.916 41.6602 62.4463 41.6566C60.579 41.6546 58.7887 40.9119 57.4683 39.5915C56.1479 38.2711 55.4052 36.4808 55.4032 34.6134C55.4032 34.3062 55.2811 34.0116 55.0639 33.7943C54.8466 33.5771 54.552 33.455 54.2447 33.455C53.9375 33.455 53.6429 33.5771 53.4256 33.7943C53.2084 34.0116 53.0863 34.3062 53.0863 34.6134C53.0945 37.0906 54.0827 39.4639 55.835 41.2148C57.5874 42.9657 59.9614 43.9519 62.4386 43.958C64.0095 43.9641 65.5561 43.5708 66.9333 42.815C68.3288 44.3802 69.1035 46.402 69.1111 48.499Z" fill="#7879F1"/>
<path d="M30.0339 5.16648C28.9987 4.99866 27.9396 5.05377 26.9274 5.32812C25.9152 5.60248 24.9733 6.08975 24.1646 6.75737C22.819 7.86498 21.9037 9.40874 21.5774 11.1207C21.1545 11.0454 20.7248 11.0143 20.2954 11.0281H20.1564C20.0666 11.0174 19.9759 11.0174 19.8861 11.0281C18.5501 11.1748 17.0055 11.8467 15.2525 13.6461C14.5559 14.3533 14.0279 15.2086 13.7079 16.1483C13.3827 17.1451 13.3189 18.2088 13.5226 19.2374C11.8556 19.4879 10.3331 20.3261 9.22988 21.6007C8.12667 22.8752 7.51545 24.5022 7.50653 26.1879C7.5068 26.6317 7.55339 27.0743 7.64554 27.5085C6.6247 28.3314 5.78927 29.3607 5.19403 30.529C4.59878 31.6973 4.25715 32.9783 4.19153 34.2878C4.1259 35.5974 4.33777 36.9061 4.81323 38.1281C5.2887 39.35 6.01703 40.4577 6.9505 41.3786C5.95208 42.5352 5.20712 43.8882 4.76366 45.3504C4.3202 46.8125 4.18807 48.3514 4.3758 49.8678C4.56352 51.3841 5.06694 52.8443 5.85358 54.1542C6.64022 55.4641 7.69264 56.5946 8.94297 57.4728C8.67754 58.3848 8.57301 59.336 8.63406 60.2839C8.78083 62.5194 9.80946 64.6051 11.4938 66.0823C13.1781 67.5595 15.3801 68.3072 17.6156 68.1611C17.9794 68.1364 18.3407 68.0847 18.6968 68.0067C19.5154 69.4721 20.7112 70.6918 22.1602 71.5391C23.6092 72.3865 25.2585 72.8307 26.937 72.8257C28.1907 72.8242 29.4313 72.5712 30.5855 72.0819C31.7397 71.5925 32.784 70.8766 33.6567 69.9766C34.5293 69.0766 35.2127 68.0106 35.6662 66.8419C36.1197 65.6731 36.3342 64.4253 36.297 63.1722V12.6962C36.3132 10.9029 35.6926 9.16195 34.5458 7.78318C33.3989 6.40441 31.8001 5.47719 30.0339 5.16648ZM33.9802 63.1722C34.0019 64.8683 33.4315 66.519 32.3673 67.8398C31.303 69.1606 29.8114 70.069 28.1495 70.4085C26.563 70.6931 24.9268 70.431 23.5085 69.6651C22.0902 68.8991 20.9738 67.6746 20.3418 66.1918C20.2558 65.9865 20.1125 65.8103 19.9289 65.6843C19.7454 65.5583 19.5295 65.4878 19.3069 65.4813C19.1864 65.4805 19.0665 65.4987 18.9517 65.5354C18.4699 65.701 17.9691 65.8048 17.4612 65.8443C15.8392 65.9502 14.2414 65.4077 13.0192 64.3361C11.797 63.2645 11.0503 61.7514 10.9432 60.1294C10.8918 59.2101 11.0502 58.291 11.4065 57.4419C11.8819 56.29 12.6816 55.3009 13.7084 54.5948C14.7353 53.8887 15.9451 53.4962 17.1909 53.4647C17.4981 53.4647 17.7928 53.3426 18.01 53.1254C18.2273 52.9082 18.3493 52.6135 18.3493 52.3063C18.3493 51.9991 18.2273 51.7044 18.01 51.4872C17.7928 51.2699 17.4981 51.1479 17.1909 51.1479C15.7268 51.1732 14.2927 51.5671 13.0212 52.2933C11.7497 53.0196 10.6817 54.0546 9.91604 55.3027C8.98151 54.5743 8.20766 53.6606 7.6431 52.6189C7.07853 51.5771 6.73544 50.4299 6.63536 49.2493C6.53528 48.0687 6.68038 46.8801 7.06154 45.7582C7.44271 44.6363 8.05171 43.6054 8.8503 42.73C10.2725 43.5341 11.8805 43.9516 13.5142 43.9409C15.1479 43.9302 16.7503 43.4918 18.1618 42.6692C19.5733 41.8467 20.7448 40.6687 21.5595 39.2526C22.3742 37.8365 22.8037 36.2317 22.8053 34.598C22.8053 34.2907 22.6833 33.9961 22.4661 33.7788C22.2488 33.5616 21.9542 33.4396 21.6469 33.4396C21.3397 33.4396 21.0451 33.5616 20.8278 33.7788C20.6106 33.9961 20.4885 34.2907 20.4885 34.598C20.4899 35.895 20.133 37.1673 19.4574 38.2745C18.7817 39.3816 17.8133 40.2807 16.6592 40.8726C15.505 41.4644 14.2098 41.7261 12.9164 41.6287C11.623 41.5313 10.3816 41.0786 9.32911 40.3205C9.22795 40.2488 9.11579 40.194 8.99703 40.1584C8.1739 39.4564 7.52475 38.5732 7.10057 37.578C6.67639 36.5829 6.48873 35.503 6.55234 34.423C6.61595 33.3431 6.9291 32.2927 7.46718 31.3542C8.00526 30.4158 8.75362 29.6148 9.65347 29.0144C9.86118 28.8743 10.0179 28.6706 10.1 28.4339C10.1822 28.1972 10.1854 27.9402 10.1091 27.7015C9.94541 27.2372 9.85677 26.7497 9.84653 26.2574C9.84855 25.6327 9.97397 25.0146 10.2156 24.4386C10.4572 23.8625 10.8103 23.3399 11.2545 22.9007C11.6987 22.4615 12.2253 22.1144 12.804 21.8794C13.3828 21.6443 14.0023 21.5259 14.6269 21.531H14.8586C15.0418 21.5461 15.2258 21.5167 15.3952 21.4455C15.5646 21.3742 15.7143 21.2632 15.8317 21.1217C15.9487 20.981 16.0307 20.8145 16.071 20.636C16.1112 20.4575 16.1086 20.2719 16.0634 20.0946C16.0634 20.0946 16.0634 20.0328 16.0634 20.0096C16.0657 19.8758 16.0448 19.7425 16.0016 19.6158C15.6678 18.7504 15.6379 17.7974 15.9166 16.9128C16.1439 16.2918 16.5112 15.7316 16.9901 15.2756C18.3339 13.87 19.3842 13.4067 20.2877 13.3449C21.5252 13.3731 22.7025 13.8841 23.5683 14.7686C24.4341 15.6532 24.9197 16.8412 24.9214 18.079C24.9214 18.3862 25.0434 18.6808 25.2607 18.8981C25.4779 19.1153 25.7726 19.2374 26.0798 19.2374C26.387 19.2374 26.6817 19.1153 26.8989 18.8981C27.1162 18.6808 27.2382 18.3862 27.2382 18.079C27.2372 16.8627 26.9217 15.6674 26.3222 14.6092C25.7227 13.551 24.8597 12.6658 23.817 12.0397C23.8786 11.3637 24.0734 10.7065 24.3902 10.106C24.7069 9.50558 25.1395 8.9738 25.6628 8.54133C26.2213 8.08296 26.8711 7.74878 27.5689 7.56103C28.2666 7.37327 28.9963 7.33625 29.7095 7.45242C30.925 7.68334 32.02 8.33601 32.8013 9.29535C33.5826 10.2547 34.0001 11.4591 33.9802 12.6962V63.1722Z" fill="#7879F1"/>
</svg>
