<svg width="65" height="67" viewBox="0 0 65 67" fill="none" xmlns="http://www.w3.org/2000/svg">
<path d="M48.7718 28.2729C49.9797 27.7741 51.2945 27.5706 52.6016 27.6801C54.3134 27.5608 55.97 27.0393 57.4298 26.1601C59.0764 25.3289 60.535 24.1843 61.7194 22.794C62.9038 21.4037 63.7898 19.796 64.325 18.0661C64.8539 16.3719 65.0284 14.5915 64.8381 12.8304C64.6478 11.0693 64.0967 9.36339 63.2174 7.81365C61.3884 4.64441 58.362 2.29594 54.7826 1.26823C51.2031 0.240528 47.3533 0.614757 44.0528 2.31125C42.4062 3.14236 40.9476 4.28696 39.7632 5.67726C38.5788 7.06756 37.6928 8.67529 37.1576 10.4053C36.6287 12.0994 36.4542 13.8798 36.6445 15.6409C36.8348 17.402 37.3859 19.1079 38.2652 20.6576C38.2652 20.7109 38.3432 20.8173 38.3666 20.8629C39.0594 22.2025 39.1782 23.7552 38.6971 25.1801C38.2159 26.605 37.1741 27.7857 35.8004 28.4629C34.4139 29.1739 32.8003 29.3393 31.2923 28.925C29.7843 28.5106 28.4971 27.5481 27.6962 26.2361L27.5948 26.0765C25.7697 22.9033 22.745 20.5499 19.1652 19.5179C15.5854 18.4858 11.7335 18.8566 8.4302 20.5513C6.78285 21.3832 5.32371 22.529 4.13929 23.9206C2.95486 25.3123 2.06926 26.9215 1.535 28.6529C1.00612 30.347 0.831641 32.1274 1.0219 33.8885C1.21215 35.6496 1.76327 37.3555 2.6426 38.9053C4.47291 42.0732 7.49987 44.42 11.0792 45.4463C14.6585 46.4725 18.5076 46.0972 21.8072 44.4001C23.3597 43.7155 24.7172 42.6719 25.7618 41.3601C26.4006 40.257 27.3122 39.3269 28.4138 38.6545C29.8326 37.9315 31.4853 37.7781 33.0186 38.2268C34.552 38.6756 35.8443 39.691 36.6194 41.0561C37.0647 41.8137 37.3188 42.6636 37.3608 43.5357C37.4029 44.4077 37.2316 45.2771 36.8612 46.0721C35.7447 48.0404 35.1591 50.2527 35.1591 52.5017C35.1591 54.7506 35.7447 56.9629 36.8612 58.9313C38.6892 62.1015 41.7138 64.4523 45.2925 65.4841C48.8712 66.5158 52.7217 66.1471 56.0258 64.4565C57.6724 63.6253 59.131 62.4807 60.3154 61.0904C61.4998 59.7001 62.3858 58.0924 62.921 56.3624C63.4499 54.6683 63.6244 52.8879 63.4341 51.1268C63.2438 49.3657 62.6927 47.6598 61.8134 46.1101C59.6216 42.2113 55.6592 39.7641 50.3474 39.0345C49.934 38.9053 47.4536 38.0617 46.3226 36.0553C45.9512 35.4004 45.7184 34.6796 45.638 33.9355C45.5577 33.1914 45.6313 32.4391 45.8546 31.7233C46.0796 30.9874 46.4536 30.3029 46.9547 29.7103C47.4557 29.1176 48.0736 28.6289 48.7718 28.2729ZM43.6004 31.0545C43.2872 32.0591 43.1838 33.1148 43.2963 34.1591C43.4089 35.2034 43.735 36.2151 44.2556 37.1345C45.9716 40.1745 49.6142 41.1929 49.7702 41.2385H49.9184C53.1164 41.6641 57.422 43.0321 59.7386 47.1589C60.4683 48.4442 60.9258 49.8593 61.0839 51.3201C61.242 52.7809 61.0975 54.2578 60.659 55.6632C60.213 57.1027 59.4751 58.4403 58.489 59.597C57.5029 60.7536 56.2887 61.7057 54.9182 62.3969C52.1575 63.8167 48.9369 64.1298 45.9426 63.2695C42.9484 62.4092 40.4175 60.4434 38.8892 57.7913C37.9681 56.1617 37.4851 54.3316 37.4851 52.4713C37.4851 50.6109 37.9681 48.7808 38.8892 47.1513C39.4489 46.0192 39.7192 44.772 39.6771 43.5161C39.635 42.2602 39.2817 41.0329 38.6474 39.9389C37.5662 38.0602 35.7753 36.6668 33.6557 36.055C31.5362 35.4433 29.2553 35.6615 27.2984 36.6633C25.8543 37.5021 24.6521 38.684 23.804 40.0985C22.9598 41.0841 21.8916 41.8648 20.684 42.3785C17.9318 43.7897 14.7241 44.1021 11.7397 43.2496C8.75534 42.3971 6.2285 40.4466 4.694 37.8109C3.96531 36.5265 3.5084 35.1128 3.35031 33.6533C3.19222 32.1939 3.33615 30.7183 3.7736 29.3141C4.21963 27.8746 4.95752 26.537 5.94361 25.3804C6.92969 24.2237 8.14392 23.2717 9.5144 22.5805C12.2718 21.167 15.4861 20.8566 18.4747 21.7152C21.4632 22.5737 23.9906 24.5335 25.52 27.1785C25.5746 27.2773 25.6838 27.4445 25.6916 27.4521C26.8099 29.2474 28.5903 30.5584 30.6683 31.1165C32.7462 31.6745 34.9645 31.4376 36.869 30.4541C38.7726 29.5067 40.2166 27.8668 40.8881 25.8895C41.5597 23.9123 41.4048 21.7568 40.457 19.8901C40.457 19.8901 40.3556 19.6697 40.2932 19.5633C39.5634 18.2779 39.106 16.8628 38.9479 15.402C38.7898 13.9412 38.9343 12.4643 39.3728 11.0589C39.8188 9.6194 40.5567 8.28177 41.5428 7.12515C42.5289 5.96854 43.7431 5.01645 45.1136 4.32525C47.8766 2.89835 51.1029 2.58134 54.1026 3.44201C57.1024 4.30267 59.6375 6.27269 61.166 8.93085C61.8957 10.2162 62.3532 11.6313 62.5113 13.0921C62.6694 14.5529 62.5249 16.0298 62.0864 17.4353C61.6404 18.8747 60.9025 20.2123 59.9164 21.3689C58.9303 22.5256 57.7161 23.4777 56.3456 24.1689C55.2099 24.8571 53.9254 25.2786 52.5938 25.4001C50.9064 25.2979 49.2191 25.6006 47.6798 26.2817C46.7077 26.7722 45.8461 27.4471 45.1455 28.2667C44.4449 29.0863 43.9196 30.0342 43.6004 31.0545Z" fill="#7879F1"/>
</svg>
