<svg width="72" height="81" viewBox="0 0 72 81" fill="none" xmlns="http://www.w3.org/2000/svg">
<path d="M24.5941 59.3465H5.41782C5.13422 59.3465 4.86224 59.2197 4.66171 58.9941C4.46117 58.7685 4.34851 58.4626 4.34851 58.1435C4.34851 46.2421 12.7889 36.5542 23.1612 36.5542C23.4448 36.5542 23.7168 36.6809 23.9173 36.9065C24.1178 37.1321 24.2305 37.4381 24.2305 37.7572C24.2305 38.0762 24.1178 38.3822 23.9173 38.6078C23.7168 38.8334 23.4448 38.9601 23.1612 38.9601C18.8747 39.0148 14.7677 40.9044 11.6755 44.2445C8.58338 47.5846 6.73832 52.1244 6.51564 56.9405H24.5941C24.8777 56.9405 25.1496 57.0673 25.3502 57.2929C25.5507 57.5185 25.6634 57.8245 25.6634 58.1435C25.6634 58.4626 25.5507 58.7685 25.3502 58.9941C25.1496 59.2197 24.8777 59.3465 24.5941 59.3465Z" fill="#7879F1"/>
<path d="M23.1683 32.8811C20.8419 32.8811 18.5678 32.105 16.6335 30.651C14.6992 29.197 13.1916 27.1303 12.3013 24.7124C11.411 22.2944 11.1781 19.6338 11.632 17.0669C12.0858 14.5 13.2061 12.1422 14.8511 10.2915C16.4961 8.44091 18.5919 7.18063 20.8736 6.67004C23.1553 6.15945 25.5203 6.42151 27.6696 7.42305C29.8189 8.4246 31.6559 10.1207 32.9484 12.2968C34.2408 14.4729 34.9307 17.0313 34.9307 19.6485C34.9269 23.1567 33.6865 26.52 31.4814 29.0007C29.2764 31.4814 26.2867 32.8769 23.1683 32.8811ZM23.1683 8.82172C21.2649 8.82172 19.4043 9.45669 17.8216 10.6464C16.239 11.836 15.0055 13.5269 14.2771 15.5052C13.5487 17.4836 13.3581 19.6605 13.7295 21.7606C14.1008 23.8608 15.0174 25.79 16.3633 27.3041C17.7092 28.8183 19.424 29.8494 21.2908 30.2672C23.1576 30.6849 25.0927 30.4705 26.8512 29.651C28.6097 28.8316 30.1127 27.4439 31.1702 25.6635C32.2277 23.883 32.7921 21.7898 32.7921 19.6485C32.7883 16.7783 31.7732 14.027 29.9692 11.9975C28.1652 9.96799 25.7195 8.82596 23.1683 8.82172Z" fill="#7879F1"/>
<path d="M23.1541 46.571C19.3741 46.5739 15.6649 45.4177 12.4253 43.2267C12.3051 43.144 12.2004 43.0355 12.1174 42.9073C12.0344 42.7792 11.9746 42.6338 11.9415 42.4797C11.9084 42.3255 11.9026 42.1656 11.9245 42.0089C11.9463 41.8522 11.9954 41.7019 12.0689 41.5666C12.2173 41.2933 12.4562 41.0975 12.7329 41.0223C12.8699 40.985 13.0121 40.9785 13.1514 41.0031C13.2907 41.0277 13.4243 41.0829 13.5446 41.1656C16.4527 43.1321 19.7824 44.1691 23.1754 44.165C23.459 44.165 23.731 44.2918 23.9316 44.5174C24.1321 44.743 24.2448 45.0489 24.2448 45.368C24.2448 45.687 24.1321 45.993 23.9316 46.2186C23.731 46.4442 23.459 46.571 23.1754 46.571H23.1541Z" fill="#7879F1"/>
<path d="M32.4285 17.9483C31.2878 17.9906 30.1513 17.7722 29.0878 17.3063C28.0242 16.8403 27.0557 16.1366 26.2408 15.2376C24.1022 16.5849 18.0855 19.5683 13.2166 15.3098C13.1057 15.2129 13.0128 15.0923 12.9433 14.9551C12.8738 14.8178 12.8289 14.6665 12.8114 14.5097C12.7939 14.3529 12.8039 14.1938 12.841 14.0414C12.8782 13.8891 12.9416 13.7464 13.0277 13.6216C13.2017 13.3695 13.4575 13.2056 13.7389 13.1657C13.8782 13.146 14.0197 13.1573 14.1551 13.1991C14.2906 13.2408 14.4174 13.3122 14.5283 13.4091C19.2475 17.5393 25.8202 12.7274 25.8844 12.6793C26.0032 12.5904 26.1366 12.5292 26.2767 12.4992C26.4169 12.4692 26.561 12.4711 26.7005 12.5047C26.84 12.5384 26.9721 12.6031 27.089 12.695C27.206 12.787 27.3054 12.9043 27.3814 13.0402C27.4384 13.1364 28.9141 15.5824 32.4285 15.5824C32.7121 15.5824 32.9841 15.7092 33.1846 15.9348C33.3852 16.1604 33.4978 16.4664 33.4978 16.7854C33.4978 17.1045 33.3852 17.4104 33.1846 17.636C32.9841 17.8616 32.7121 17.9884 32.4285 17.9884V17.9483Z" fill="#7879F1"/>
<path d="M68.0792 50.5247H48.8317C48.5481 50.5247 48.2761 50.3979 48.0756 50.1723C47.875 49.9467 47.7624 49.6408 47.7624 49.3217C47.7624 49.0027 47.875 48.6967 48.0756 48.4711C48.2761 48.2455 48.5481 48.1187 48.8317 48.1187H66.96C66.7308 44.8947 65.4391 41.8834 63.3381 39.6756C61.2372 37.4679 58.4787 36.223 55.604 36.1853C53.1549 36.1793 50.7722 37.0812 48.8245 38.7516C48.5979 38.9306 48.3184 39.0036 48.0448 38.9554C47.7713 38.9072 47.525 38.7415 47.3578 38.4932C47.1907 38.2449 47.1156 37.9333 47.1485 37.624C47.1814 37.3147 47.3197 37.0318 47.5343 36.8349C49.8524 34.846 52.6886 33.7721 55.604 33.7793C59.231 33.8238 62.6942 35.4853 65.2335 38.3991C67.7728 41.313 69.1808 45.2412 69.1485 49.3217C69.1485 49.6408 69.0359 49.9467 68.8353 50.1723C68.6348 50.3979 68.3628 50.5247 68.0792 50.5247Z" fill="#7879F1"/>
<path d="M55.604 31.2773C53.7711 31.2773 51.9793 30.6658 50.4553 29.5202C48.9313 28.3746 47.7435 26.7463 47.0421 24.8413C46.3406 22.9362 46.1571 20.84 46.5147 18.8176C46.8723 16.7952 47.7549 14.9375 49.051 13.4794C50.347 12.0213 51.9983 11.0284 53.796 10.6261C55.5937 10.2238 57.457 10.4303 59.1504 11.2194C60.8438 12.0085 62.2911 13.3448 63.3095 15.0593C64.3278 16.7738 64.8713 18.7895 64.8713 20.8515C64.8713 23.6166 63.8949 26.2684 62.1569 28.2236C60.419 30.1788 58.0618 31.2773 55.604 31.2773ZM55.604 12.8317C54.194 12.8317 52.8158 13.3021 51.6435 14.1833C50.4711 15.0645 49.5574 16.3171 49.0179 17.7825C48.4783 19.2479 48.3372 20.8604 48.6122 22.4161C48.8873 23.9718 49.5662 25.4008 50.5632 26.5224C51.5602 27.644 52.8304 28.4078 54.2132 28.7172C55.596 29.0267 57.0294 28.8679 58.332 28.2609C59.6346 27.6539 60.7479 26.6259 61.5313 25.3071C62.3146 23.9882 62.7327 22.4377 62.7327 20.8515C62.7327 18.7245 61.9816 16.6847 60.6447 15.1807C59.3078 13.6767 57.4946 12.8317 55.604 12.8317Z" fill="#7879F1"/>
<path d="M61.1216 21.9743C58.9238 21.9543 56.8038 21.0561 55.1402 19.4402C53.4766 17.8243 52.3777 15.5957 52.0396 13.1525C52.019 12.9946 52.0263 12.8336 52.061 12.6787C52.0957 12.5239 52.1572 12.3783 52.2419 12.2502C52.3266 12.1221 52.433 12.0141 52.5548 11.9322C52.6767 11.8504 52.8117 11.7963 52.9521 11.7731C53.0925 11.75 53.2356 11.7581 53.3732 11.7972C53.5108 11.8362 53.6403 11.9054 53.7541 12.0007C53.868 12.096 53.964 12.2156 54.0368 12.3527C54.1096 12.4898 54.1576 12.6417 54.1782 12.7997C54.3328 13.9503 54.7099 15.0488 55.2829 16.0176C55.856 16.9865 56.6109 17.8021 57.4946 18.407C58.3783 19.0119 59.3692 19.3914 60.3974 19.5186C61.4256 19.6458 62.4661 19.5177 63.4456 19.1433C63.5785 19.0907 63.7193 19.068 63.8601 19.0766C64.0008 19.0851 64.1386 19.1248 64.2657 19.1933C64.3928 19.2618 64.5067 19.3578 64.6008 19.4759C64.6949 19.5939 64.7675 19.7316 64.8143 19.8811C64.8611 20.0307 64.8812 20.1892 64.8736 20.3475C64.866 20.5058 64.8307 20.6609 64.7698 20.8039C64.7089 20.9468 64.6236 21.0749 64.5187 21.1808C64.4138 21.2867 64.2914 21.3683 64.1584 21.4209C63.181 21.7962 62.1543 21.9833 61.1216 21.9743Z" fill="#7879F1"/>
<path d="M65.9406 41.703C65.742 41.703 65.5474 41.6408 65.3784 41.5234C65.2095 41.4059 65.073 41.2379 64.9842 41.038C64.8954 40.8382 64.8578 40.6145 64.8756 40.392C64.8934 40.1695 64.966 39.957 65.0852 39.7783C67.3521 36.3859 66.1188 33.1138 64.6931 29.3525C63.7307 26.7862 62.7327 24.1557 62.7327 21.2525C62.7327 20.9335 62.8453 20.6275 63.0459 20.4019C63.2464 20.1763 63.5184 20.0496 63.802 20.0496C64.0856 20.0496 64.3576 20.1763 64.5581 20.4019C64.7586 20.6275 64.8713 20.9335 64.8713 21.2525C64.8713 23.6585 65.7766 26.0644 66.6606 28.3982C68.2075 32.4883 69.8044 36.7147 66.796 41.2299C66.6957 41.3778 66.5662 41.4975 66.4178 41.5796C66.2693 41.6617 66.106 41.704 65.9406 41.703Z" fill="#7879F1"/>
<path d="M44.3548 33.5949C44.2408 33.5943 44.1276 33.5726 44.0198 33.5307C43.8852 33.4867 43.7598 33.4129 43.6509 33.3138C43.5419 33.2146 43.4516 33.092 43.3853 32.9531C43.3189 32.8142 43.2778 32.6619 43.2643 32.505C43.2509 32.348 43.2654 32.1896 43.3069 32.0391C43.3069 31.9428 43.4424 31.6461 43.6063 31.2371C44.3192 29.4166 46.3509 23.8829 46.3509 21.2845C46.3509 20.9655 46.4635 20.6595 46.6641 20.4339C46.8646 20.2083 47.1366 20.0815 47.4202 20.0815C47.7038 20.0815 47.9758 20.2083 48.1763 20.4339C48.3768 20.6595 48.4895 20.9655 48.4895 21.2845C48.4895 24.0433 46.8285 28.8151 45.581 32.1674C45.4598 32.4962 45.3743 32.7207 45.3457 32.809C45.269 33.0362 45.1337 33.2324 44.9571 33.3724C44.7806 33.5125 44.5708 33.59 44.3548 33.5949Z" fill="#7879F1"/>
<path d="M48.9885 73.7821H24.038C23.7544 73.7821 23.4824 73.6554 23.2819 73.4298C23.0814 73.2042 22.9687 72.8982 22.9687 72.5792C22.9687 70.5781 23.3191 68.5967 23.9997 66.748C24.6804 64.8993 25.6781 63.2195 26.9358 61.8045C28.1935 60.3896 29.6867 59.2672 31.33 58.5014C32.9733 57.7357 34.7346 57.3416 36.5133 57.3416C38.292 57.3416 40.0532 57.7357 41.6965 58.5014C43.3398 59.2672 44.833 60.3896 46.0907 61.8045C47.3484 63.2195 48.3461 64.8993 49.0268 66.748C49.7075 68.5967 50.0578 70.5781 50.0578 72.5792C50.0578 72.8982 49.9452 73.2042 49.7446 73.4298C49.5441 73.6554 49.2721 73.7821 48.9885 73.7821ZM25.1501 71.3762H47.8693C47.6129 68.1861 46.3052 65.2192 44.2032 63.0586C42.1012 60.898 39.3569 59.7 36.5097 59.7C33.6625 59.7 30.9182 60.898 28.8162 63.0586C26.7142 65.2192 25.4065 68.1861 25.1501 71.3762Z" fill="#7879F1"/>
<path d="M36.3564 54.5346C34.5235 54.5346 32.7318 53.9231 31.2078 52.7775C29.6838 51.632 28.496 50.0037 27.7945 48.0986C27.0931 46.1936 26.9096 44.0973 27.2672 42.0749C27.6248 40.0525 28.5074 38.1948 29.8034 36.7367C31.0995 35.2787 32.7508 34.2857 34.5485 33.8834C36.3462 33.4812 38.2095 33.6876 39.9029 34.4767C41.5963 35.2658 43.0436 36.6021 44.0619 38.3166C45.0802 40.0311 45.6238 42.0468 45.6238 44.1089C45.6238 46.8739 44.6474 49.5258 42.9094 51.481C41.1715 53.4362 38.8143 54.5346 36.3564 54.5346ZM36.3564 36.0891C34.9465 36.0891 33.5682 36.5594 32.3959 37.4406C31.2236 38.3219 30.3099 39.5744 29.7704 41.0398C29.2308 42.5052 29.0896 44.1178 29.3647 45.6734C29.6398 47.2291 30.3187 48.6581 31.3157 49.7797C32.3126 50.9013 33.5829 51.6651 34.9657 51.9746C36.3485 52.284 37.7819 52.1252 39.0845 51.5182C40.3871 50.9112 41.5004 49.8833 42.2837 48.5644C43.0671 47.2456 43.4851 45.695 43.4851 44.1089C43.4851 41.9819 42.7341 39.942 41.3972 38.438C40.0603 36.934 38.2471 36.0891 36.3564 36.0891Z" fill="#7879F1"/>
<path d="M36.5133 65.2491C33.7534 65.2657 31.0419 64.4338 28.6717 62.8431C28.5514 62.7615 28.4466 62.654 28.3632 62.5268C28.2798 62.3997 28.2195 62.2552 28.1858 62.1018C28.152 61.9484 28.1454 61.789 28.1664 61.6327C28.1874 61.4765 28.2356 61.3264 28.3081 61.1911C28.3807 61.0557 28.4762 60.9378 28.5893 60.844C28.7023 60.7502 28.8307 60.6824 28.9671 60.6444C29.1034 60.6064 29.2451 60.599 29.384 60.6226C29.5229 60.6463 29.6563 60.7004 29.7766 60.7821C31.806 62.1528 34.1284 62.8769 36.4954 62.8769C38.8625 62.8769 41.1849 62.1528 43.2143 60.7821C43.4572 60.6172 43.7484 60.5677 44.0238 60.6444C44.2992 60.7211 44.5362 60.9177 44.6828 61.1911C44.8293 61.4644 44.8733 61.792 44.8051 62.1018C44.7369 62.4116 44.5622 62.6783 44.3192 62.8431C41.9592 64.4264 39.261 65.258 36.5133 65.2491Z" fill="#7879F1"/>
<path d="M29.5414 40.5803C33.5976 44.109 38.2384 40.0991 38.2384 40.0991C38.2384 40.0991 41.2966 43.8364 43.5778 40.4119" fill="white"/>
<path d="M33.2697 43.2266C31.6797 43.2403 30.1332 42.6433 28.8855 41.5344C28.6615 41.3388 28.5157 41.051 28.4803 40.7344C28.4449 40.4178 28.5227 40.0983 28.6966 39.8463C28.8706 39.5942 29.1264 39.4302 29.4078 39.3904C29.6892 39.3505 29.9732 39.4381 30.1972 39.6337C33.505 42.5529 37.4257 39.2969 37.5897 39.1285C37.8003 38.949 38.0626 38.8637 38.3258 38.8888C38.5891 38.914 38.8348 39.048 39.0154 39.2648C39.3434 39.6658 40.4055 40.7004 41.3893 40.6362C41.6605 40.5988 41.9207 40.4927 42.1504 40.3261C42.38 40.1594 42.5731 39.9364 42.7152 39.6738C42.7995 39.5475 42.9051 39.441 43.0259 39.3605C43.1467 39.28 43.2805 39.2271 43.4195 39.2047C43.5585 39.1824 43.7 39.1911 43.8361 39.2303C43.9721 39.2695 44.0999 39.3385 44.2123 39.4332C44.3246 39.528 44.4193 39.6468 44.4908 39.7827C44.5623 39.9186 44.6094 40.0691 44.6293 40.2255C44.6491 40.3819 44.6414 40.5411 44.6065 40.6942C44.5717 40.8472 44.5104 40.991 44.4261 41.1174C44.099 41.6685 43.6644 42.1283 43.1555 42.4618C42.6465 42.7954 42.0766 42.9939 41.4891 43.0422C40.2547 43.03 39.0645 42.524 38.1315 41.6146C36.667 42.6285 34.9888 43.185 33.2697 43.2266Z" fill="#7879F1"/>
</svg>
