<svg width="407" height="244" viewBox="0 0 407 244" fill="none" xmlns="http://www.w3.org/2000/svg">
<path d="M257.81 96.7396C257.628 94.4989 256.734 92.4519 255.848 90.4301C247.568 71.611 233.056 59.9607 212.296 56.6501C180.885 51.6463 152.998 72.9167 148.034 101.331C142.809 131.278 163.561 159.734 194.468 164.451C212.782 167.24 228.864 162.371 242.447 150.055C244.695 148.016 247.03 146.239 250.094 145.607C256.369 144.31 262.531 146.946 265.56 152.186C268.694 157.611 267.774 164.047 263.104 168.63C256.152 175.445 248.184 180.886 239.21 184.896C192.402 205.821 137.488 182.066 122.69 134.176C108.474 88.1556 137.35 42.0851 183.445 31.0076C185.563 30.5021 187.707 30.0557 189.868 29.7861C191.465 29.5924 192.064 28.9184 191.89 27.4274C191.821 26.8293 191.882 26.2144 191.882 25.6078C191.856 23.2912 191.856 23.2912 189.486 22.9459C187.36 22.6426 186.657 22.0024 186.318 19.8543C185.494 14.564 184.669 9.2738 183.914 3.97514C183.506 1.14469 184.504 0.0327307 187.499 0.0243068C198.226 -0.00938901 208.945 -0.00938901 219.673 0.0327307C222.528 0.0411547 223.483 1.05203 223.119 3.79823C222.39 9.29907 221.539 14.7915 220.654 20.2755C220.341 22.2298 219.612 22.8448 217.13 22.8953C215.377 22.9374 215.116 23.6282 215.099 25.0855C215.047 29.2301 214.986 29.247 219.091 30.0304C226.573 31.4541 233.803 33.6527 240.59 37.0391C242.17 37.831 243.02 37.5446 243.862 36.1799C244.504 35.1437 245.242 34.1497 246.041 33.2231C247.256 31.8163 248.601 31.513 250.163 32.5576C254.954 35.7755 259.702 39.0525 264.389 42.4136C265.96 43.5424 266.038 44.7049 264.962 46.3897C264.198 47.5859 263.347 48.7484 262.436 49.8435C261.672 50.7533 261.846 51.3935 262.662 52.1601C263.998 53.4237 265.291 54.7547 266.533 56.1109C279.048 69.9009 286.209 85.898 287.675 104.262C287.866 106.68 288.187 109.098 287.97 111.524C287.319 118.802 281.383 124.101 273.788 124.244C271.81 124.278 269.831 124.252 267.852 124.252C246.718 124.252 225.575 124.235 204.441 124.261C199.303 124.269 195.032 122.551 192.073 118.423C188.905 113.992 188.488 109.173 191.057 104.372C193.609 99.6038 197.792 97.0092 203.408 96.9924C220.376 96.9502 237.353 96.9755 254.329 96.9587C255.44 96.9755 256.595 97.1693 257.81 96.7396Z" fill="#ED1E42"/>
<path d="M406.957 67.271C407.105 71.1292 405.655 74.3724 402.869 77.0765C388.01 91.5067 373.168 105.962 358.257 120.342C352.642 125.75 344.214 125.843 338.625 120.46C323.549 105.954 308.534 91.3803 293.579 76.7564C288.111 71.4072 288.346 63.0169 293.848 57.7014C299.203 52.5291 307.865 52.3101 313.29 57.4824C323.983 67.6754 334.528 78.0115 345.134 88.2888C345.577 88.7184 346.011 89.148 346.462 89.5692C348.38 91.3888 348.406 91.4056 350.333 89.5355C361.087 79.1151 371.849 68.7031 382.568 58.249C385.589 55.3006 389.086 53.6916 393.426 53.818C401.098 54.0454 406.922 59.7821 406.957 67.271Z" fill="#36BFC7"/>
<path d="M71.0097 110.574C71.6085 111.787 72.5633 112.444 73.3704 113.219C83.9592 123.513 94.548 133.816 105.171 144.076C108.227 147.025 109.745 150.487 109.537 154.69C109.251 160.301 106.387 164.336 101.205 166.484C96.0668 168.607 91.0155 168.026 86.563 164.471C86.1637 164.151 85.8079 163.771 85.4434 163.418C70.7233 149.131 55.9858 134.852 41.283 120.548C36.5094 115.898 35.546 109.648 38.6185 104.164C39.2694 102.993 40.12 101.99 41.0834 101.055C55.9598 86.625 70.8014 72.1779 85.7037 57.7814C91.2498 52.4322 99.9118 52.4238 105.371 57.6214C110.987 62.9706 111.195 71.3861 105.571 76.929C94.9038 87.4421 84.1067 97.812 73.3618 108.249C72.5459 109.041 71.7561 109.833 71.0097 110.574Z" fill="#36BFC7"/>
<path d="M0.0174728 110.404C0.0174728 96.1593 0.0435107 81.9144 0.000114184 67.6695C-0.0172444 62.7415 1.94428 58.8075 6.09299 56.036C10.5802 53.0455 15.4232 52.7423 20.2923 55.0757C25.1788 57.426 27.6437 61.4526 28.1124 66.667C28.1645 67.2651 28.1298 67.8801 28.1298 68.4866C28.1298 96.572 28.1211 124.666 28.1471 152.751C28.1471 155.22 27.8086 157.595 26.7324 159.819C23.9811 165.522 17.2372 168.647 10.8232 167.249C4.73902 165.926 0.0955866 160.518 0.0608694 154.352C-0.0172444 139.703 0.0348314 125.053 0.0348314 110.404C0.0261521 110.404 0.0174728 110.404 0.0174728 110.404Z" fill="#FBAB18"/>
<path d="M362.414 150.592C362.258 152.445 362.64 154.762 362.024 157.07C360.201 163.986 354.108 168.122 346.583 167.44C339.892 166.834 334.536 161.122 334.328 154.273C334.25 151.553 334.25 148.823 334.328 146.094C334.545 138.529 340.655 132.784 348.406 132.801C356.087 132.809 362.223 138.681 362.397 146.212C362.44 147.517 362.414 148.823 362.414 150.592Z" fill="#FBAB18"/>
<path d="M57.9331 227.44C60.0161 224.525 62.0818 221.644 64.1301 218.755C64.729 217.912 65.3192 217.163 66.4736 216.943C70.0581 216.253 71.2385 217.137 71.2385 220.675C71.2472 226.926 71.2558 233.185 71.2385 239.435C71.2298 242.367 69.0947 243.681 66.2913 242.535C65.0935 242.047 65.1196 240.994 65.1196 239.975C65.1196 236.748 65.1369 233.522 65.1022 230.295C65.0935 229.31 65.2932 228.307 64.755 226.833C63.4618 228.569 62.3509 230.06 61.2399 231.551C60.6931 232.283 60.1984 233.067 59.5909 233.749C58.0459 235.493 56.4489 235.51 54.9301 233.682C53.5587 232.039 52.3697 230.253 51.0591 228.56C50.7119 228.105 50.5297 227.457 49.4274 227.288C49.4274 230.506 49.4274 233.665 49.4274 236.832C49.4274 237.641 49.4361 238.45 49.4274 239.25C49.3927 242.409 47.7436 243.546 44.6624 242.578C43.5775 242.232 43.3172 241.423 43.3085 240.455C43.2998 239.141 43.2998 237.835 43.2998 236.521C43.2998 231.273 43.2651 226.033 43.3258 220.785C43.3432 219.471 42.7356 217.845 44.5583 217.078C46.5025 216.27 49.5142 216.96 50.7466 218.544C52.5606 220.877 54.3052 223.261 56.1018 225.612C56.5791 226.252 56.935 227.019 57.9331 227.44Z" fill="#ED1F43"/>
<path d="M362.801 239.486C361.135 237.287 359.46 235.106 357.603 232.671C358.254 232.166 358.757 231.812 359.226 231.408C362.116 228.855 362.489 225.595 361.586 222.217C360.692 218.898 358.054 217.449 354.669 216.986C351.544 216.556 348.437 216.859 345.321 216.893C343.776 216.91 343.082 217.677 343.082 219.176C343.099 226.244 343.056 233.311 343.117 240.387C343.134 242.359 343.585 242.62 345.903 242.67C348.446 242.721 349.027 242.384 349.166 240.489C349.279 238.88 349.158 237.254 349.218 235.645C349.244 234.912 348.854 233.909 350.052 233.657C350.98 233.471 351.614 233.952 352.126 234.684C353.41 236.521 354.877 238.248 356.014 240.168C357.221 242.19 358.826 242.999 361.161 242.679C361.977 242.569 362.871 242.755 363.4 241.929C364.025 240.935 363.348 240.211 362.801 239.486ZM351.336 228.08C349.192 228.097 349.192 228.097 349.201 225.216C349.21 222.394 349.21 222.394 351.449 222.386C354.157 222.369 355.485 223.245 355.519 225.073C355.554 226.993 354.061 228.072 351.336 228.08Z" fill="#ED1F42"/>
<path d="M135.092 239.55C132.22 232.735 129.225 225.962 126.404 219.122C125.641 217.26 124.382 216.848 122.533 216.848C120.754 216.848 119.652 217.42 118.958 219.097C116.111 225.929 113.134 232.702 110.27 239.525C109.237 241.985 109.766 242.65 112.726 242.667C114.332 242.954 115.442 242.17 115.946 240.426C116.111 239.845 116.449 239.314 116.623 238.742C116.953 237.579 117.69 237.158 118.914 237.208C120.685 237.284 122.455 237.2 124.226 237.234C127.958 237.293 127.489 236.636 128.947 240.199C129.946 242.642 130.145 242.726 132.879 242.667C135.596 242.608 136.108 241.976 135.092 239.55ZM119.843 231.615C120.19 229.29 121.431 227.361 122.264 224.952C123.948 226.948 124.269 229.189 125.493 231.615H119.843Z" fill="#ED1F42"/>
<path d="M286.874 229.55C286.874 226.223 286.831 222.895 286.892 219.568C286.926 217.294 287.274 216.957 289.652 216.906C293.08 216.839 296.508 216.839 299.937 216.906C302.254 216.948 302.601 217.386 302.593 219.635C302.593 221.859 302.176 222.339 299.954 222.424C298.192 222.491 296.422 222.483 294.66 222.432C293.497 222.398 292.898 222.786 293.002 223.982C293.045 224.479 293.037 224.993 293.002 225.49C292.933 226.535 293.427 226.922 294.477 226.897C296.031 226.855 297.602 226.821 299.156 226.922C301.065 227.048 301.464 227.596 301.456 229.736C301.447 231.96 301.178 232.288 299.078 232.398C297.941 232.457 296.786 232.347 295.649 232.431C294.79 232.499 293.592 231.926 293.176 233.072C292.759 234.209 292.889 235.472 293.141 236.66C293.254 237.208 293.957 237.157 294.469 237.157C296.439 237.166 298.418 237.115 300.388 237.182C302.567 237.25 303.061 237.814 303.061 239.979C303.061 242.245 302.74 242.624 300.353 242.658C296.717 242.709 293.08 242.717 289.443 242.658C287.265 242.624 286.935 242.296 286.9 240.148C286.831 236.61 286.874 233.08 286.874 229.55Z" fill="#ED1F42"/>
<path d="M181.266 243.201C178.271 243.133 175.798 242.156 173.558 240.598C172.326 239.747 172.23 238.702 173.038 237.447C174.175 235.678 174.947 235.257 176.501 235.973C177.534 236.445 178.497 237.034 179.617 237.338C181.509 237.852 182.949 237.565 183.531 236.504C184.173 235.333 183.47 234.094 181.431 232.983C179.712 232.039 177.872 231.289 176.232 230.236C173.472 228.476 172.187 225.881 172.743 222.697C173.203 220.043 174.826 218.081 177.473 217.12C180.528 216.008 183.6 216.143 186.56 217.466C188.487 218.325 188.817 218.99 188.27 220.439C187.497 222.486 186.456 223.127 184.564 222.528C183.462 222.183 182.394 221.846 181.222 221.989C180.346 222.099 179.591 222.419 179.321 223.312C179.061 224.146 179.226 224.954 179.903 225.527C180.519 226.05 181.222 226.496 181.951 226.875C183.132 227.499 184.39 228.004 185.571 228.636C189.251 230.615 190.622 233.134 190.092 236.799C189.65 239.848 187.02 242.249 183.253 242.982C182.542 243.125 181.804 243.15 181.266 243.201Z" fill="#ED1F43"/>
<path d="M237.806 216.885C240.514 216.885 243.222 216.835 245.922 216.902C248.317 216.961 248.699 217.374 248.725 219.539C248.751 221.856 248.274 222.336 245.826 222.445C245.514 222.462 245.201 222.445 244.889 222.454C240.697 222.487 240.697 222.487 240.697 226.708C240.697 231.046 240.705 235.393 240.688 239.731C240.679 240.7 241 241.921 239.768 242.385C238.397 242.899 236.86 242.958 235.524 242.343C234.439 241.837 234.586 240.641 234.586 239.639C234.578 235.595 234.63 231.56 234.56 227.525C234.534 225.941 235.272 224.012 234.17 222.858C233.146 221.788 231.21 222.546 229.683 222.462C227.044 222.319 225.725 220.137 226.949 217.863C227.487 216.869 228.459 216.902 229.388 216.902C232.191 216.869 235.003 216.885 237.806 216.885Z" fill="#ED1F43"/>
</svg>
