<svg width="74" height="81" viewBox="0 0 74 81" fill="none" xmlns="http://www.w3.org/2000/svg">
<path d="M63.5322 29.1585C62.7321 15.3792 52.6112 4.26785 39.991 3.31363C32.8442 2.77147 26.0414 5.40468 20.8344 10.7252C15.722 15.948 12.79 23.3224 12.79 30.957C12.79 32.0607 12.8491 33.1653 12.9657 34.2471L7.80525 45.7172C7.38893 46.6432 7.43026 47.7242 7.91671 48.609C8.40389 49.4953 9.26015 50.0415 10.2057 50.0722C11.6119 50.1183 12.5907 50.1498 13.2831 50.1563L13.2728 53.1878C13.2728 62.6711 15.4082 68.1613 26.2879 68.1605L31.0025 68.331V74.9402C31.0025 75.6093 31.4978 76.1522 32.1097 76.1522C32.7217 76.1522 33.217 75.6093 33.217 74.9402V67.1586C33.217 66.5041 32.7431 65.9684 32.1459 65.9474L26.3233 65.7374C17.9165 65.7374 15.4857 62.9232 15.4857 53.1927L15.5012 48.9047C15.5012 48.8215 15.4939 48.7391 15.4784 48.6567C15.3647 48.0474 14.8472 47.6224 14.284 47.6943C14.2346 47.6992 14.1866 47.7089 14.1401 47.7202C13.9105 47.7299 13.1022 47.7396 10.2699 47.6491C10.0064 47.6402 9.8706 47.4633 9.81229 47.3582C9.75471 47.254 9.67647 47.0415 9.79088 46.7878L15.0975 34.9921C15.1942 34.7772 15.2303 34.5356 15.2023 34.298C15.0702 33.204 15.003 32.0801 15.003 30.957C15.003 23.9914 17.6788 17.2634 22.3439 12.4971C27.0977 7.64036 33.3151 5.2342 39.8367 5.73191C51.3549 6.60291 60.5907 16.7406 61.3207 29.3128C61.7784 37.185 58.9402 44.6879 53.5354 49.8969C53.297 50.1272 53.1597 50.4576 53.1597 50.8059L53.1471 74.9394C53.1464 75.6084 53.6424 76.1514 54.2536 76.1522H54.2544C54.8655 76.1522 55.3609 75.6101 55.3616 74.941L55.3764 51.3472C61.0557 45.6566 64.0231 37.6019 63.5322 29.1585Z" fill="#7879F1"/>
<path d="M43.9977 18.1787C43.9948 18.1787 43.9911 18.1787 43.9881 18.1787C41.7065 18.1787 39.633 19.3802 38.3648 21.2886C37.0878 19.3996 35.0195 18.2078 32.7563 18.2046C32.7534 18.2046 32.7504 18.2046 32.7475 18.2046C30.8741 18.2046 29.1209 18.9948 27.81 20.4289C26.5337 21.8259 25.8317 23.6738 25.8339 25.6331C25.8362 27.5384 26.4761 29.3078 27.6343 30.6159C30.0414 33.3332 37.327 40.9516 37.6356 41.274C37.8496 41.497 38.1249 41.6093 38.4003 41.6093C38.6771 41.6093 38.9532 41.4962 39.1672 41.2708C39.4743 40.9484 46.7097 33.3348 49.1124 30.6353C50.2883 29.3143 50.9349 27.5327 50.9319 25.6194C50.9275 21.5229 47.8162 18.1844 43.9977 18.1787ZM48.7182 25.6234C48.7197 26.9 48.2975 28.0797 47.5276 28.9442C45.6054 31.104 40.3712 36.6378 38.3995 38.7184C36.4169 36.6402 31.1486 31.1007 29.2258 28.9297C28.4691 28.0749 28.0514 26.9033 28.0499 25.6299C28.0484 24.3194 28.5201 23.0815 29.3771 22.1427C30.2688 21.1666 31.4668 20.6285 32.7482 20.6285C32.7497 20.6285 32.7519 20.6285 32.7541 20.6285C34.883 20.6317 36.7564 22.1637 37.3093 24.3541C37.4422 24.8793 37.8791 25.2437 38.3767 25.2437C38.3781 25.2437 38.3804 25.2437 38.3818 25.2437C38.8823 25.2413 39.3185 24.8728 39.4462 24.3436C39.9829 22.1402 41.8497 20.6027 43.9881 20.6027C43.9903 20.6027 43.9925 20.6027 43.9948 20.6027C46.596 20.6067 48.7145 22.8593 48.7182 25.6234Z" fill="#7879F1"/>
</svg>
