<svg width="1654" height="300" viewBox="0 0 1654 300" fill="none" xmlns="http://www.w3.org/2000/svg">
<g clip-path="url(#clip0_328_1367)">
<rect width="1654" height="300" fill="#BEE4F0"/>
<path d="M526 142L530.051 152.219L541 156L530.051 159.781L526 170L521.949 159.781L511 156L521.949 152.219L526 142Z" fill="#EFEFEF"/>
<path d="M1250 160L1254.05 170.219L1265 174L1254.05 177.781L1250 188L1245.95 177.781L1235 174L1245.95 170.219L1250 160Z" fill="#EFEFEF"/>
<path d="M1195 289L1197.16 294.474L1203 296.5L1197.16 298.526L1195 304L1192.84 298.526L1187 296.5L1192.84 294.474L1195 289Z" fill="#EFEFEF"/>
<g opacity="0.4" filter="url(#filter0_f_328_1367)">
<path d="M866.656 150.818C866.479 148.987 865.762 147.297 865.032 145.661C859.114 132.433 849.031 124.284 834.751 121.875C813.66 118.311 793.432 132.883 789.771 153.95C786.085 175.169 799.952 195.628 820.976 199.533C834.216 201.996 845.978 198.584 855.891 189.327C857.521 187.801 859.218 186.512 861.462 186.086C865.786 185.265 869.995 187.15 872.081 190.866C874.234 194.698 873.65 199.356 870.499 202.58C865.823 207.372 860.44 211.222 854.395 214.11C819.681 230.677 778.818 210.796 770.765 173.217C763.796 140.68 784.626 110.575 814.748 103.35C816.165 103.01 817.589 102.687 819.03 102.511C820.143 102.377 820.569 101.891 820.447 100.808C820.398 100.376 820.441 99.9324 820.441 99.4945C820.423 97.8159 820.423 97.8159 818.768 97.5727C817.278 97.3537 816.792 96.8915 816.555 95.3407C815.977 91.5214 815.399 87.702 814.87 83.8767C814.584 81.8271 815.278 81.0243 817.37 81.0182C824.887 80.9939 832.398 80.9939 839.914 81.0182C841.915 81.0243 842.584 81.7481 842.329 83.7307C841.818 87.702 841.228 91.6673 840.614 95.6265C840.395 97.0314 839.89 97.4814 838.145 97.524C836.91 97.5544 836.734 98.0653 836.728 99.1113C836.697 102.097 836.655 102.116 839.531 102.681C844.774 103.709 849.834 105.303 854.596 107.741C855.709 108.313 856.299 108.094 856.882 107.115C857.332 106.367 857.849 105.649 858.409 104.98C859.266 103.958 860.179 103.746 861.292 104.512C864.655 106.829 867.975 109.201 871.26 111.628C872.36 112.436 872.403 113.27 871.643 114.492C871.101 115.356 870.518 116.201 869.879 116.992C869.344 117.654 869.472 118.111 870.043 118.664C871.935 120.489 873.68 122.453 875.286 124.539C882.462 133.85 886.64 144.323 887.54 156.073C887.711 158.25 888.021 160.421 887.583 162.611C886.677 167.154 883.089 170.365 878.485 170.693C878.12 170.717 877.755 170.711 877.39 170.711C861.267 170.711 845.139 170.724 829.016 170.705C823.938 170.699 820.1 167.677 818.993 162.927C817.649 157.173 821.961 151.365 827.867 151.061C830.05 150.946 832.245 151.019 834.435 151.019C844.36 151.019 854.279 151.019 864.205 151.013C864.995 151.001 865.804 151.153 866.656 150.818Z" fill="#ED1E42"/>
<path d="M735.37 161.26C736.112 161.808 736.835 162.209 737.401 162.768C744.845 170.176 752.258 177.62 759.702 185.034C761.782 187.101 762.834 189.534 762.737 192.49C762.609 196.443 760.748 199.344 757.245 201.01C753.681 202.707 750.154 202.373 746.931 199.989C746.231 199.472 745.617 198.833 744.997 198.219C735.138 188.372 725.298 178.508 715.434 168.674C713.281 166.527 711.84 164.125 711.846 160.98C711.846 158.286 712.746 155.987 714.631 154.078C717.094 151.59 719.576 149.121 722.051 146.646C730.048 138.654 738.021 130.639 746.055 122.678C750.616 118.159 757.975 119.077 761.344 124.484C763.637 128.163 763.211 133.059 760.219 136.246C758.072 138.533 755.81 140.704 753.59 142.924C748.123 148.391 742.655 153.859 737.194 159.332C736.689 159.831 736.215 160.366 735.37 161.26Z" fill="#36BFC7"/>
<path d="M971.157 129.331C971.206 132.336 970.312 134.598 968.481 136.435C957.972 146.968 947.481 157.514 936.911 167.987C933.055 171.806 927.155 171.8 923.312 167.993C912.693 157.465 902.117 146.902 891.595 136.277C887.867 132.512 888.092 126.449 891.863 122.678C895.603 118.938 901.679 118.774 905.492 122.453C909.585 126.4 913.557 130.475 917.583 134.495C921.195 138.101 924.802 141.714 928.42 145.32C930.245 147.139 929.941 147.175 931.753 145.369C939.234 137.895 946.72 130.426 954.183 122.933C956.129 120.987 958.385 119.874 961.183 119.85C966.906 119.795 971.175 123.998 971.157 129.331Z" fill="#36BFC7"/>
<path d="M686.012 160.684C686.012 150.254 685.988 139.824 686.024 129.394C686.042 124.68 689.266 120.873 693.869 119.931C699.793 118.714 705.394 123.081 705.692 129.157C705.717 129.594 705.698 130.032 705.698 130.47C705.698 150.747 705.692 171.023 705.711 191.299C705.711 193.544 705.297 195.636 704.05 197.533C701.684 201.121 697.239 202.782 693.134 201.608C688.968 200.416 686.048 196.755 686.03 192.412C685.975 181.836 686.012 171.26 686.012 160.684Z" fill="#FBAB18"/>
<path d="M939.929 189.7C939.832 191.05 940.082 192.722 939.656 194.389C938.391 199.37 934.103 202.374 928.837 201.875C924.148 201.431 920.384 197.29 920.25 192.369C920.195 190.405 920.201 188.435 920.25 186.464C920.39 181.021 924.683 176.861 930.12 176.867C935.502 176.873 939.808 181.118 939.923 186.543C939.948 187.492 939.929 188.435 939.929 189.7Z" fill="#FBAB18"/>
</g>
<path d="M866.656 150.818C866.479 148.987 865.762 147.297 865.032 145.661C859.114 132.433 849.031 124.284 834.751 121.875C813.66 118.311 793.432 132.883 789.771 153.95C786.085 175.169 799.952 195.628 820.976 199.533C834.216 201.996 845.978 198.584 855.891 189.327C857.521 187.801 859.218 186.512 861.462 186.086C865.786 185.265 869.995 187.15 872.081 190.866C874.234 194.698 873.65 199.356 870.499 202.58C865.823 207.372 860.44 211.222 854.395 214.11C819.681 230.677 778.818 210.796 770.765 173.217C763.796 140.68 784.626 110.575 814.748 103.35C816.165 103.01 817.589 102.687 819.03 102.511C820.143 102.377 820.569 101.891 820.447 100.808C820.398 100.376 820.441 99.9324 820.441 99.4945C820.423 97.8159 820.423 97.8159 818.768 97.5727C817.278 97.3537 816.792 96.8915 816.555 95.3407C815.977 91.5214 815.399 87.702 814.87 83.8767C814.584 81.8271 815.278 81.0243 817.37 81.0182C824.887 80.9939 832.398 80.9939 839.914 81.0182C841.915 81.0243 842.584 81.7481 842.329 83.7307C841.818 87.702 841.228 91.6673 840.614 95.6265C840.395 97.0314 839.89 97.4814 838.145 97.524C836.91 97.5544 836.734 98.0653 836.728 99.1113C836.697 102.097 836.655 102.116 839.531 102.681C844.774 103.709 849.834 105.303 854.596 107.741C855.709 108.313 856.299 108.094 856.882 107.115C857.332 106.367 857.849 105.649 858.409 104.98C859.266 103.958 860.179 103.746 861.292 104.512C864.655 106.829 867.975 109.201 871.26 111.628C872.36 112.436 872.403 113.27 871.643 114.492C871.101 115.356 870.518 116.201 869.879 116.992C869.344 117.654 869.472 118.111 870.043 118.664C871.935 120.489 873.68 122.453 875.286 124.539C882.462 133.85 886.64 144.323 887.54 156.073C887.711 158.25 888.021 160.421 887.583 162.611C886.677 167.154 883.089 170.365 878.485 170.693C878.12 170.717 877.755 170.711 877.39 170.711C861.267 170.711 845.139 170.724 829.016 170.705C823.938 170.699 820.1 167.677 818.993 162.927C817.649 157.173 821.961 151.365 827.867 151.061C830.05 150.946 832.245 151.019 834.435 151.019C844.36 151.019 854.279 151.019 864.205 151.013C864.995 151.001 865.804 151.153 866.656 150.818Z" fill="#ED1E42"/>
<path d="M735.37 161.26C736.112 161.808 736.835 162.209 737.401 162.768C744.845 170.176 752.258 177.62 759.702 185.034C761.782 187.101 762.834 189.534 762.737 192.49C762.609 196.443 760.748 199.344 757.245 201.01C753.681 202.707 750.154 202.373 746.931 199.989C746.231 199.472 745.617 198.833 744.997 198.219C735.138 188.372 725.298 178.508 715.434 168.674C713.281 166.527 711.84 164.125 711.846 160.98C711.846 158.286 712.746 155.987 714.631 154.078C717.094 151.59 719.576 149.121 722.051 146.646C730.048 138.654 738.021 130.639 746.055 122.678C750.616 118.159 757.975 119.077 761.344 124.484C763.637 128.163 763.211 133.059 760.219 136.246C758.072 138.533 755.81 140.704 753.59 142.924C748.123 148.391 742.655 153.859 737.194 159.332C736.689 159.831 736.215 160.366 735.37 161.26Z" fill="#36BFC7"/>
<path d="M971.157 129.331C971.206 132.336 970.312 134.598 968.481 136.435C957.972 146.968 947.481 157.514 936.911 167.987C933.055 171.806 927.155 171.8 923.312 167.993C912.693 157.465 902.117 146.902 891.595 136.277C887.867 132.512 888.092 126.449 891.863 122.678C895.603 118.938 901.679 118.774 905.492 122.453C909.585 126.4 913.557 130.475 917.583 134.495C921.195 138.101 924.802 141.714 928.42 145.32C930.245 147.139 929.941 147.175 931.753 145.369C939.234 137.895 946.72 130.426 954.183 122.933C956.129 120.987 958.385 119.874 961.183 119.85C966.906 119.795 971.175 123.998 971.157 129.331Z" fill="#36BFC7"/>
<path d="M686.012 160.684C686.012 150.254 685.988 139.824 686.024 129.394C686.042 124.68 689.266 120.873 693.869 119.931C699.793 118.714 705.394 123.081 705.692 129.157C705.717 129.594 705.698 130.032 705.698 130.47C705.698 150.747 705.692 171.023 705.711 191.299C705.711 193.544 705.297 195.636 704.05 197.533C701.684 201.121 697.239 202.782 693.134 201.608C688.968 200.416 686.048 196.755 686.03 192.412C685.975 181.836 686.012 171.26 686.012 160.684Z" fill="#FBAB18"/>
<path d="M939.929 189.7C939.832 191.05 940.082 192.722 939.656 194.389C938.391 199.37 934.103 202.374 928.837 201.875C924.148 201.431 920.384 197.29 920.25 192.369C920.195 190.405 920.201 188.435 920.25 186.464C920.39 181.021 924.683 176.861 930.12 176.867C935.502 176.873 939.808 181.118 939.923 186.543C939.948 187.492 939.929 188.435 939.929 189.7Z" fill="#FBAB18"/>
<g filter="url(#filter1_d_328_1367)">
<path d="M272.086 127.553C265.004 75.4314 217.245 35 159.552 35C114.888 35 76.0911 59.3951 58.378 97.8428C23.5676 107.565 -2.50781 138.274 -2.50781 171.286C-2.50781 213.035 33.8422 247 78.522 247H256.788C292.538 247 321.612 219.834 321.612 186.429C321.587 172.855 316.695 159.68 307.718 149.008C298.741 138.336 286.196 130.782 272.086 127.553V127.553Z" fill="#EFEFEF"/>
<path d="M31.0527 164.88C26.28 129.047 -5.90545 101.25 -44.7857 101.25C-74.8852 101.25 -101.031 118.022 -112.968 144.454C-136.427 151.138 -154 172.251 -154 194.946C-154 223.649 -129.503 247 -99.3929 247H20.7428C44.8355 247 64.4285 228.323 64.4285 205.357C64.4118 196.025 61.1153 186.967 55.0655 179.631C49.0157 172.294 40.5615 167.1 31.0527 164.88Z" fill="#EFEFEF"/>
<path d="M397.444 164.88C392.671 129.047 360.485 101.25 321.605 101.25C291.506 101.25 265.36 118.022 253.423 144.454C229.963 151.138 212.391 172.251 212.391 194.946C212.391 223.649 236.887 247 266.998 247H387.134C411.227 247 430.82 228.323 430.82 205.357C430.803 196.025 427.506 186.967 421.457 179.631C415.407 172.294 406.952 167.1 397.444 164.88Z" fill="#EFEFEF"/>
<path d="M459.72 209.814C457.535 193.587 442.8 181 425 181C411.22 181 399.25 188.595 393.785 200.564C383.045 203.591 375 213.151 375 223.429C375 236.426 386.215 247 400 247H455C466.03 247 475 238.543 475 228.143C474.992 223.917 473.483 219.815 470.713 216.493C467.944 213.171 464.073 210.819 459.72 209.814Z" fill="#EFEFEF"/>
<path d="M540.652 215.041C539.887 209.386 534.73 205 528.5 205C523.677 205 519.488 207.647 517.575 211.818C513.816 212.873 511 216.204 511 219.786C511 224.315 514.925 228 519.75 228H539C542.86 228 546 225.053 546 221.429C545.997 219.956 545.469 218.527 544.5 217.369C543.53 216.211 542.176 215.391 540.652 215.041Z" fill="#EFEFEF"/>
<path d="M1125.33 250.429C1124.81 253.379 1121.27 255.668 1117 255.668C1113.69 255.668 1110.82 254.287 1109.51 252.111C1106.93 251.561 1105 249.822 1105 247.954C1105 245.591 1107.69 243.668 1111 243.668H1124.2C1126.85 243.668 1129 245.206 1129 247.097C1129 247.865 1128.64 248.611 1127.97 249.215C1127.31 249.819 1126.38 250.246 1125.33 250.429Z" fill="#EFEFEF"/>
<path d="M1121.17 242.287C1120.9 240.812 1119.14 239.668 1117 239.668C1115.35 239.668 1113.91 240.358 1113.25 241.447C1111.97 241.722 1111 242.591 1111 243.525C1111 244.707 1112.35 245.668 1114 245.668H1120.6C1121.92 245.668 1123 244.899 1123 243.954C1123 243.57 1122.82 243.197 1122.49 242.895C1122.15 242.593 1121.69 242.379 1121.17 242.287Z" fill="#EFEFEF"/>
<path d="M444.555 139.802C444.206 137.098 441.848 135 439 135C436.795 135 434.88 136.266 434.006 138.261C432.287 138.765 431 140.359 431 142.071C431 144.238 432.794 146 435 146H443.8C445.565 146 447 144.59 447 142.857C446.999 142.153 446.757 141.469 446.314 140.916C445.871 140.362 445.252 139.97 444.555 139.802Z" fill="#EFEFEF"/>
<g filter="url(#filter2_f_328_1367)">
<path d="M446.449 113.805C442.517 94.2046 416.001 79 383.969 79C359.171 79 337.631 88.174 327.796 102.633C308.469 106.288 293.992 117.837 293.992 130.251C293.992 145.951 314.174 158.724 338.981 158.724H437.955C457.804 158.724 473.946 148.508 473.946 135.946C473.932 130.841 471.216 125.887 466.232 121.874C461.248 117.86 454.283 115.02 446.449 113.805Z" fill="#EFEFEF"/>
</g>
<g filter="url(#filter3_f_328_1367)">
<path d="M538.389 128.599C535.727 115.452 517.778 105.254 496.095 105.254C479.309 105.254 464.728 111.407 458.07 121.105C444.988 123.557 435.188 131.303 435.188 139.63C435.188 150.16 448.849 158.728 465.641 158.728H532.639C546.076 158.728 557.002 151.875 557.002 143.449C556.993 140.026 555.155 136.702 551.781 134.011C548.407 131.319 543.692 129.414 538.389 128.599Z" fill="#EFEFEF"/>
</g>
<g filter="url(#filter4_f_328_1367)">
<path d="M323.674 139.551C321.98 131.185 310.558 124.695 296.759 124.695C286.077 124.695 276.798 128.611 272.562 134.782C264.236 136.343 258 141.272 258 146.571C258 153.272 266.694 158.724 277.38 158.724H320.015C328.565 158.724 335.519 154.363 335.519 149.002C335.513 146.823 334.343 144.708 332.196 142.995C330.049 141.282 327.048 140.07 323.674 139.551Z" fill="#EFEFEF"/>
</g>
<g filter="url(#filter5_f_328_1367)">
<path d="M385.342 180.229C388.508 196.011 409.859 208.254 435.65 208.254C455.617 208.254 472.962 200.867 480.88 189.225C496.443 186.281 508.1 176.982 508.1 166.986C508.1 154.345 491.849 144.06 471.875 144.06H392.181C376.199 144.06 363.201 152.286 363.201 162.401C363.212 166.511 365.399 170.501 369.412 173.732C373.426 176.964 379.034 179.251 385.342 180.229Z" fill="#EFEFEF"/>
</g>
<g filter="url(#filter6_f_328_1367)">
<path d="M329.734 166.941C331.878 177.527 346.33 185.738 363.79 185.738C377.306 185.738 389.046 180.784 394.407 172.975C404.941 171.001 412.832 164.763 412.832 158.059C412.832 149.58 401.832 142.681 388.311 142.681H334.364C323.545 142.681 314.747 148.199 314.747 154.983C314.755 157.74 316.235 160.416 318.951 162.583C321.668 164.751 325.465 166.285 329.734 166.941Z" fill="#EFEFEF"/>
</g>
<g filter="url(#filter7_f_328_1367)">
<path d="M474.991 157.593C476.355 164.329 485.552 169.555 496.662 169.555C505.263 169.555 512.735 166.402 516.146 161.433C522.85 160.176 527.871 156.207 527.871 151.941C527.871 146.545 520.871 142.155 512.267 142.155H477.937C471.052 142.155 465.453 145.666 465.453 149.983C465.458 151.738 466.4 153.441 468.129 154.82C469.858 156.199 472.274 157.175 474.991 157.593Z" fill="#EFEFEF"/>
</g>
<g filter="url(#filter8_f_328_1367)">
<path d="M566.724 45.4765C565.54 39.5766 557.559 35 547.917 35C540.453 35 533.969 37.7614 531.009 42.1135C525.192 43.2139 520.834 46.6901 520.834 50.4268C520.834 55.1526 526.909 58.9973 534.376 58.9973H564.167C570.142 58.9973 575.001 55.9222 575.001 52.1409C574.996 50.6044 574.179 49.1131 572.679 47.9051C571.179 46.6971 569.082 45.8421 566.724 45.4765Z" fill="#EFEFEF"/>
</g>
<g filter="url(#filter9_f_328_1367)">
<path d="M594.398 49.9293C593.597 45.972 588.194 42.9023 581.667 42.9023C576.615 42.9023 572.226 44.7545 570.222 47.6736C566.284 48.4117 563.334 50.7433 563.334 53.2496C563.334 56.4193 567.446 58.9981 572.501 58.9981H592.667C596.712 58.9981 600.001 56.9355 600.001 54.3993C599.998 53.3687 599.444 52.3685 598.429 51.5582C597.413 50.748 595.994 50.1745 594.398 49.9293Z" fill="#EFEFEF"/>
</g>
<g filter="url(#filter10_f_328_1367)">
<path d="M529.768 53.2256C529.258 50.7073 525.82 48.7539 521.667 48.7539C518.451 48.7539 515.658 49.9326 514.383 51.7901C511.877 52.2599 510 53.7436 510 55.3385C510 57.3556 512.617 58.9967 515.833 58.9967H528.667C531.24 58.9967 533.333 57.6841 533.333 56.0702C533.332 55.4143 532.979 54.7778 532.333 54.2622C531.687 53.7466 530.784 53.3816 529.768 53.2256Z" fill="#EFEFEF"/>
</g>
<g filter="url(#filter11_f_328_1367)">
<path d="M548.331 65.4706C549.284 70.2212 555.71 73.9062 563.474 73.9062C569.484 73.9062 574.705 71.6828 577.088 68.1785C581.772 67.2924 585.281 64.4934 585.281 61.4846C585.281 57.6794 580.39 54.5837 574.378 54.5837H550.389C545.579 54.5837 541.666 57.0597 541.666 60.1044C541.67 61.3416 542.328 62.5424 543.536 63.5151C544.744 64.4878 546.432 65.1762 548.331 65.4706Z" fill="#EFEFEF"/>
</g>
<g filter="url(#filter12_f_328_1367)">
<path d="M531.593 61.4708C532.238 64.6572 536.588 67.1289 541.844 67.1289C545.912 67.1289 549.446 65.6376 551.059 63.2871C554.23 62.6928 556.605 60.8154 556.605 58.7973C556.605 56.2451 553.294 54.1687 549.224 54.1687H532.986C529.73 54.1687 527.082 55.8294 527.082 57.8716C527.084 58.7014 527.529 59.5068 528.347 60.1592C529.165 60.8116 530.308 61.2734 531.593 61.4708Z" fill="#EFEFEF"/>
</g>
<g filter="url(#filter13_f_328_1367)">
<path d="M575.315 58.6572C575.726 60.6849 578.494 62.2578 581.838 62.2578C584.427 62.2578 586.676 61.3088 587.703 59.813C589.721 59.4348 591.232 58.2401 591.232 56.9559C591.232 55.3317 589.125 54.0104 586.535 54.0104H576.202C574.13 54.0104 572.444 55.0672 572.444 56.3668C572.446 56.8949 572.729 57.4074 573.25 57.8226C573.77 58.2377 574.497 58.5316 575.315 58.6572Z" fill="#EFEFEF"/>
</g>
<g filter="url(#filter14_f_328_1367)">
<path d="M1246.92 159.649C1243.6 176.178 1221.24 189 1194.23 189C1173.32 189 1155.15 181.264 1146.86 169.071C1130.56 165.988 1118.35 156.249 1118.35 145.78C1118.35 132.54 1135.37 121.769 1156.29 121.769H1239.75C1256.49 121.769 1270.11 130.384 1270.11 140.978C1270.09 145.283 1267.8 149.461 1263.6 152.845C1259.4 156.229 1253.52 158.625 1246.92 159.649Z" fill="#EFEFEF"/>
</g>
<g filter="url(#filter15_f_328_1367)">
<path d="M1324.45 147.173C1322.2 158.259 1307.07 166.859 1288.78 166.859C1274.63 166.859 1262.33 161.67 1256.72 153.492C1245.68 151.424 1237.42 144.892 1237.42 137.87C1237.42 128.99 1248.94 121.765 1263.1 121.765H1319.6C1330.93 121.765 1340.15 127.544 1340.15 134.649C1340.14 137.537 1338.59 140.339 1335.74 142.609C1332.9 144.879 1328.92 146.486 1324.45 147.173Z" fill="#EFEFEF"/>
</g>
<g filter="url(#filter16_f_328_1367)">
<path d="M1143.38 137.941C1141.95 144.996 1132.32 150.469 1120.69 150.469C1111.68 150.469 1103.85 147.167 1100.28 141.962C1093.26 140.646 1088 136.49 1088 132.021C1088 126.37 1095.33 121.773 1104.34 121.773H1140.3C1147.51 121.773 1153.37 125.45 1153.37 129.972C1153.37 131.809 1152.38 133.592 1150.57 135.037C1148.76 136.481 1146.23 137.504 1143.38 137.941Z" fill="#EFEFEF"/>
</g>
<g filter="url(#filter17_f_328_1367)">
<path d="M1195.39 103.633C1198.06 90.3242 1216.06 80 1237.81 80C1254.65 80 1269.28 86.2293 1275.96 96.0469C1289.08 98.5294 1298.91 106.371 1298.91 114.801C1298.91 125.461 1285.21 134.134 1268.36 134.134H1201.16C1187.68 134.134 1176.72 127.197 1176.72 118.667C1176.73 115.201 1178.57 111.837 1181.96 109.112C1185.34 106.387 1190.07 104.458 1195.39 103.633Z" fill="#EFEFEF"/>
</g>
<g filter="url(#filter18_f_328_1367)">
<path d="M1148.49 114.836C1150.3 105.909 1162.49 98.9844 1177.21 98.9844C1188.61 98.9844 1198.51 103.163 1203.03 109.748C1211.92 111.413 1218.57 116.672 1218.57 122.326C1218.57 129.477 1209.29 135.294 1197.89 135.294H1152.4C1143.28 135.294 1135.86 130.641 1135.86 124.92C1135.86 122.595 1137.11 120.338 1139.4 118.511C1141.69 116.683 1144.89 115.389 1148.49 114.836Z" fill="#EFEFEF"/>
</g>
<g filter="url(#filter19_f_328_1367)">
<path d="M1270.99 122.72C1272.14 117.039 1279.89 112.633 1289.26 112.633C1296.52 112.633 1302.82 115.292 1305.69 119.482C1311.35 120.542 1315.58 123.889 1315.58 127.487C1315.58 132.037 1309.68 135.739 1302.42 135.739H1273.47C1267.67 135.739 1262.95 132.778 1262.95 129.137C1262.95 127.658 1263.74 126.222 1265.2 125.059C1266.66 123.896 1268.7 123.072 1270.99 122.72Z" fill="#EFEFEF"/>
</g>
<g filter="url(#filter20_f_328_1367)">
<path d="M1047.91 164.492C1047.51 162.526 1044.85 161 1041.64 161C1039.15 161 1036.99 161.92 1036 163.371C1034.06 163.738 1032.61 164.897 1032.61 166.142C1032.61 167.718 1034.64 168.999 1037.13 168.999H1047.06C1049.05 168.999 1050.67 167.974 1050.67 166.714C1050.67 166.201 1050.39 165.704 1049.89 165.302C1049.39 164.899 1048.69 164.614 1047.91 164.492Z" fill="#EFEFEF"/>
</g>
<g filter="url(#filter21_f_328_1367)">
<path d="M1057.13 165.975C1056.86 164.656 1055.06 163.633 1052.89 163.633C1051.2 163.633 1049.74 164.25 1049.07 165.223C1047.76 165.469 1046.78 166.246 1046.78 167.082C1046.78 168.138 1048.15 168.998 1049.83 168.998H1056.56C1057.9 168.998 1059 168.311 1059 167.465C1059 167.122 1058.81 166.788 1058.48 166.518C1058.14 166.248 1057.66 166.057 1057.13 165.975Z" fill="#EFEFEF"/>
</g>
<g filter="url(#filter22_f_328_1367)">
<path d="M1035.59 167.077C1035.42 166.237 1034.27 165.586 1032.89 165.586C1031.82 165.586 1030.89 165.979 1030.46 166.598C1029.63 166.755 1029 167.249 1029 167.781C1029 168.453 1029.87 169 1030.94 169H1035.22C1036.08 169 1036.78 168.563 1036.78 168.025C1036.78 167.806 1036.66 167.594 1036.44 167.422C1036.23 167.25 1035.93 167.129 1035.59 167.077Z" fill="#EFEFEF"/>
</g>
<g filter="url(#filter23_f_328_1367)">
<path d="M1041.77 171.157C1042.09 172.74 1044.23 173.969 1046.82 173.969C1048.83 173.969 1050.57 173.228 1051.36 172.059C1052.92 171.764 1054.09 170.831 1054.09 169.828C1054.09 168.56 1052.46 167.528 1050.46 167.528H1042.46C1040.86 167.528 1039.55 168.353 1039.55 169.368C1039.55 169.781 1039.77 170.181 1040.18 170.505C1040.58 170.829 1041.14 171.059 1041.77 171.157Z" fill="#EFEFEF"/>
</g>
<g filter="url(#filter24_f_328_1367)">
<path d="M1036.2 169.825C1036.41 170.887 1037.86 171.711 1039.61 171.711C1040.97 171.711 1042.15 171.214 1042.68 170.43C1043.74 170.232 1044.53 169.606 1044.53 168.934C1044.53 168.083 1043.43 167.391 1042.07 167.391H1036.66C1035.57 167.391 1034.69 167.944 1034.69 168.625C1034.69 168.902 1034.84 169.17 1035.11 169.388C1035.39 169.605 1035.77 169.759 1036.2 169.825Z" fill="#EFEFEF"/>
</g>
<g filter="url(#filter25_f_328_1367)">
<path d="M1050.77 168.886C1050.91 169.562 1051.83 170.086 1052.94 170.086C1053.81 170.086 1054.56 169.77 1054.9 169.271C1055.57 169.145 1056.08 168.747 1056.08 168.319C1056.08 167.777 1055.37 167.337 1054.51 167.337H1051.07C1050.38 167.337 1049.81 167.689 1049.81 168.122C1049.81 168.298 1049.91 168.469 1050.08 168.608C1050.26 168.746 1050.5 168.844 1050.77 168.886Z" fill="#EFEFEF"/>
</g>
</g>
<g filter="url(#filter26_d_328_1367)">
<path d="M1382.53 149.273C1388.44 105.756 1428.32 72 1476.49 72C1513.78 72 1546.17 92.3676 1560.96 124.468C1590.02 132.585 1611.79 158.224 1611.79 185.786C1611.79 220.642 1581.44 249 1544.14 249H1395.3C1365.46 249 1341.18 226.319 1341.18 198.429C1341.2 187.096 1345.29 176.096 1352.78 167.186C1360.28 158.276 1370.75 151.969 1382.53 149.273V149.273Z" fill="#EFEFEF"/>
<path d="M1583.77 180.438C1587.75 150.52 1614.63 127.312 1647.09 127.312C1672.22 127.312 1694.05 141.315 1704.01 163.384C1723.6 168.964 1738.27 186.592 1738.27 205.54C1738.27 229.504 1717.82 249 1692.68 249H1592.38C1572.26 249 1555.9 233.407 1555.9 214.232C1555.92 206.441 1558.67 198.878 1563.72 192.753C1568.77 186.627 1575.83 182.291 1583.77 180.438Z" fill="#EFEFEF"/>
<path d="M1277.87 180.438C1281.85 150.52 1308.72 127.312 1341.18 127.312C1366.31 127.312 1388.14 141.315 1398.11 163.384C1417.7 168.964 1432.37 186.592 1432.37 205.54C1432.37 229.504 1411.91 249 1386.78 249H1286.47C1266.36 249 1250 233.407 1250 214.232C1250.01 206.441 1252.77 198.878 1257.82 192.753C1262.87 186.627 1269.93 182.291 1277.87 180.438Z" fill="#EFEFEF"/>
</g>
<g filter="url(#filter27_d_328_1367)">
<path d="M1473.53 301.727C1479.44 345.244 1519.32 379 1567.49 379C1604.78 379 1637.17 358.632 1651.96 326.532C1681.02 318.415 1702.79 292.776 1702.79 265.214C1702.79 230.358 1672.44 202 1635.14 202H1486.3C1456.46 202 1432.18 224.681 1432.18 252.571C1432.2 263.904 1436.29 274.904 1443.78 283.814C1451.28 292.724 1461.75 299.031 1473.53 301.727V301.727Z" fill="#EFEFEF"/>
<path d="M1674.77 270.562C1678.75 300.48 1705.63 323.688 1738.09 323.688C1763.22 323.688 1785.05 309.685 1795.01 287.616C1814.6 282.036 1829.27 264.408 1829.27 245.46C1829.27 221.496 1808.82 202 1783.68 202H1683.38C1663.26 202 1646.9 217.593 1646.9 236.768C1646.92 244.559 1649.67 252.122 1654.72 258.247C1659.77 264.373 1666.83 268.709 1674.77 270.562Z" fill="#EFEFEF"/>
<path d="M1368.87 270.562C1372.85 300.48 1399.72 323.688 1432.18 323.688C1457.31 323.688 1479.14 309.685 1489.11 287.616C1508.7 282.036 1523.37 264.408 1523.37 245.46C1523.37 221.496 1502.91 202 1477.78 202H1377.47C1357.36 202 1341 217.593 1341 236.768C1341.01 244.559 1343.77 252.122 1348.82 258.247C1353.87 264.373 1360.93 268.709 1368.87 270.562Z" fill="#EFEFEF"/>
</g>
<g filter="url(#filter28_d_328_1367)">
<path d="M1507.53 78.7269C1513.44 122.244 1553.32 156 1601.49 156C1638.78 156 1671.17 135.632 1685.96 103.532C1715.02 95.4154 1736.79 69.7757 1736.79 42.2143C1736.79 7.35797 1706.44 -21 1669.14 -21H1520.3C1490.46 -21 1466.18 1.68133 1466.18 29.5715C1466.2 40.9044 1470.29 51.9041 1477.78 60.8141C1485.28 69.7241 1495.75 76.0307 1507.53 78.7269V78.7269Z" fill="#EFEFEF"/>
<path d="M1402.87 47.5622C1406.85 77.48 1433.72 100.688 1466.18 100.688C1491.31 100.688 1513.14 86.6848 1523.11 64.6159C1542.7 59.0356 1557.37 41.4083 1557.37 22.4598C1557.37 -1.50391 1536.91 -21 1511.78 -21H1411.47C1391.36 -21 1375 -5.4066 1375 13.7679C1375.01 21.5593 1377.77 29.1215 1382.82 35.2472C1387.87 41.3728 1394.93 45.7086 1402.87 47.5622Z" fill="#EFEFEF"/>
</g>
<g filter="url(#filter29_d_328_1367)">
<path d="M1270.53 83.7269C1276.44 127.244 1316.32 161 1364.49 161C1401.78 161 1434.17 140.632 1448.96 108.532C1478.02 100.415 1499.79 74.7757 1499.79 47.2143C1499.79 12.358 1469.44 -16 1432.14 -16H1283.3C1253.46 -16 1229.18 6.68133 1229.18 34.5715C1229.2 45.9044 1233.29 56.9041 1240.78 65.8141C1248.28 74.7241 1258.75 81.0307 1270.53 83.7269V83.7269Z" fill="#EFEFEF"/>
<path d="M1471.77 52.5622C1475.75 82.48 1502.63 105.688 1535.09 105.688C1560.22 105.688 1582.05 91.6848 1592.01 69.6159C1611.6 64.0356 1626.27 46.4083 1626.27 27.4598C1626.27 3.49609 1605.82 -16 1580.68 -16H1480.38C1460.26 -16 1443.9 -0.406603 1443.9 18.7679C1443.92 26.5593 1446.67 34.1215 1451.72 40.2472C1456.77 46.3728 1463.83 50.7086 1471.77 52.5622Z" fill="#EFEFEF"/>
<path d="M1165.87 52.5622C1169.85 82.48 1196.72 105.688 1229.18 105.688C1254.31 105.688 1276.14 91.6848 1286.11 69.6159C1305.7 64.0356 1320.37 46.4083 1320.37 27.4598C1320.37 3.49609 1299.91 -16 1274.78 -16H1174.47C1154.36 -16 1138 -0.406603 1138 18.7679C1138.01 26.5593 1140.77 34.1215 1145.82 40.2472C1150.87 46.3728 1157.93 50.7086 1165.87 52.5622Z" fill="#EFEFEF"/>
</g>
<g filter="url(#filter30_d_328_1367)">
<path d="M166.531 88.7269C172.444 132.244 212.318 166 260.486 166C297.776 166 330.168 145.632 344.957 113.532C374.021 105.415 395.791 79.7757 395.791 52.2143C395.791 17.358 365.442 -11 328.139 -11H179.304C149.456 -11 125.182 11.6813 125.182 39.5715C125.203 50.9044 129.287 61.9041 136.782 70.8141C144.277 79.7241 154.751 86.0307 166.531 88.7269V88.7269Z" fill="#EFEFEF"/>
<path d="M367.77 57.5622C371.755 87.48 398.627 110.688 431.088 110.688C456.218 110.688 478.047 96.6848 488.014 74.6159C507.6 69.0356 522.271 51.4083 522.271 32.4598C522.271 8.49609 501.819 -11 476.68 -11H376.378C356.263 -11 339.904 4.5934 339.904 23.7679C339.918 31.5593 342.67 39.1215 347.721 45.2472C352.773 51.3728 359.831 55.7086 367.77 57.5622Z" fill="#EFEFEF"/>
<path d="M61.8654 57.5622C65.8501 87.48 92.722 110.688 125.183 110.688C150.314 110.688 172.143 96.6848 182.109 74.6159C201.696 69.0356 216.367 51.4083 216.367 32.4598C216.367 8.49609 195.915 -11 170.775 -11H70.4731C50.358 -11 33.9996 4.5934 33.9996 23.7679C34.0136 31.5593 36.7658 39.1215 41.8169 45.2472C46.8679 51.3728 53.9264 55.7086 61.8654 57.5622Z" fill="#EFEFEF"/>
</g>
<g filter="url(#filter31_d_328_1367)">
<path d="M-48.469 99.7269C-42.5562 143.244 -2.68197 177 45.4865 177C82.7764 177 115.168 156.632 129.957 124.532C159.021 116.415 180.791 90.7757 180.791 63.2143C180.791 28.358 150.442 4.76837e-05 113.139 4.76837e-05H-35.6963C-65.5445 4.76837e-05 -89.8181 22.6813 -89.8181 50.5715C-89.7973 61.9044 -85.7134 72.9041 -78.2184 81.8141C-70.7233 90.7241 -60.2494 97.0307 -48.469 99.7269V99.7269Z" fill="#EFEFEF"/>
<path d="M152.77 68.5622C156.755 98.48 183.627 121.688 216.088 121.688C241.218 121.688 263.047 107.685 273.014 85.6159C292.6 80.0356 307.271 62.4083 307.271 43.4598C307.271 19.4961 286.819 1.04904e-05 261.68 1.04904e-05H161.378C141.263 1.04904e-05 124.904 15.5934 124.904 34.7679C124.918 42.5593 127.67 50.1215 132.721 56.2472C137.773 62.3728 144.831 66.7086 152.77 68.5622Z" fill="#EFEFEF"/>
<path d="M-153.135 68.5622C-149.15 98.48 -122.278 121.688 -89.8166 121.688C-64.6864 121.688 -42.857 107.685 -32.8906 85.6159C-13.3043 80.0356 1.36719 62.4083 1.36719 43.4598C1.36719 19.4961 -19.0853 1.04904e-05 -44.2247 1.04904e-05H-144.527C-164.642 1.04904e-05 -181 15.5934 -181 34.7679C-180.986 42.5593 -178.234 50.1215 -173.183 56.2472C-168.132 62.3728 -161.074 66.7086 -153.135 68.5622Z" fill="#EFEFEF"/>
</g>
<g filter="url(#filter32_d_328_1367)">
<path d="M21.531 234.273C27.4438 190.756 67.318 157 115.486 157C152.776 157 185.168 177.368 199.957 209.468C229.021 217.585 250.791 243.224 250.791 270.786C250.791 305.642 220.442 334 183.139 334H34.3037C4.45552 334 -19.8181 311.319 -19.8181 283.429C-19.7973 272.096 -15.7134 261.096 -8.21835 252.186C-0.723313 243.276 9.75059 236.969 21.531 234.273V234.273Z" fill="#EFEFEF"/>
<path d="M222.77 265.438C226.755 235.52 253.627 212.312 286.088 212.312C311.218 212.312 333.047 226.315 343.014 248.384C362.6 253.964 377.271 271.592 377.271 290.54C377.271 314.504 356.819 334 331.68 334H231.378C211.263 334 194.904 318.407 194.904 299.232C194.918 291.441 197.67 283.878 202.721 277.753C207.773 271.627 214.831 267.291 222.77 265.438Z" fill="#EFEFEF"/>
<path d="M-83.1346 265.438C-79.1499 235.52 -52.278 212.312 -19.8166 212.312C5.31365 212.312 27.143 226.315 37.1094 248.384C56.6957 253.964 71.3672 271.592 71.3672 290.54C71.3672 314.504 50.9147 334 25.7753 334H-74.5269C-94.642 334 -111 318.407 -111 299.232C-110.986 291.441 -108.234 283.878 -103.183 277.753C-98.1321 271.627 -91.0736 267.291 -83.1346 265.438Z" fill="#EFEFEF"/>
</g>
<g filter="url(#filter33_d_328_1367)">
<path d="M229.531 279.273C235.444 235.756 275.318 202 323.486 202C360.776 202 393.168 222.368 407.957 254.468C437.021 262.585 458.791 288.224 458.791 315.786C458.791 350.642 428.442 379 391.139 379H242.304C212.456 379 188.182 356.319 188.182 328.429C188.203 317.096 192.287 306.096 199.782 297.186C207.277 288.276 217.751 281.969 229.531 279.273V279.273Z" fill="#EFEFEF"/>
<path d="M430.77 310.438C434.755 280.52 461.627 257.312 494.088 257.312C519.218 257.312 541.047 271.315 551.014 293.384C570.6 298.964 585.271 316.592 585.271 335.54C585.271 359.504 564.819 379 539.68 379H439.378C419.263 379 402.904 363.407 402.904 344.232C402.918 336.441 405.67 328.878 410.721 322.753C415.773 316.627 422.831 312.291 430.77 310.438Z" fill="#EFEFEF"/>
<path d="M124.865 310.438C128.85 280.52 155.722 257.312 188.183 257.312C213.314 257.312 235.143 271.315 245.109 293.384C264.696 298.964 279.367 316.592 279.367 335.54C279.367 359.504 258.915 379 233.775 379H133.473C113.358 379 96.9996 363.407 96.9996 344.232C97.0136 336.441 99.7658 328.878 104.817 322.753C109.868 316.627 116.926 312.291 124.865 310.438Z" fill="#EFEFEF"/>
</g>
<path d="M669 73L672.511 85.7734L682 90.5L672.511 95.2266L669 108L665.489 95.2266L656 90.5L665.489 85.7734L669 73Z" fill="#EFEFEF"/>
<path d="M971 240L974.511 252.773L984 257.5L974.511 262.227L971 275L967.489 262.227L958 257.5L967.489 252.773L971 240Z" fill="#EFEFEF"/>
<path d="M899.5 113L901.526 118.109L907 120L901.526 121.891L899.5 127L897.474 121.891L892 120L897.474 118.109L899.5 113Z" fill="#EFEFEF"/>
<path d="M971.5 58L972.985 63.4743L977 65.5L972.985 67.5257L971.5 73L970.015 67.5257L966 65.5L970.015 63.4743L971.5 58Z" fill="#EFEFEF"/>
<path d="M1088.5 31L1089.72 35.3795L1093 37L1089.72 38.6205L1088.5 43L1087.28 38.6205L1084 37L1087.28 35.3795L1088.5 31Z" fill="#EFEFEF"/>
<path d="M764.5 31L765.445 34.6495L768 36L765.445 37.3505L764.5 41L763.555 37.3505L761 36L763.555 34.6495L764.5 31Z" fill="#EFEFEF"/>
<path d="M573 233L575.701 243.584L583 247.5L575.701 251.416L573 262L570.299 251.416L563 247.5L570.299 243.584L573 233Z" fill="#EFEFEF"/>
<path d="M714 252L716.431 260.759L723 264L716.431 267.241L714 276L711.569 267.241L705 264L711.569 260.759L714 252Z" fill="#EFEFEF"/>
</g>
<defs>
<filter id="filter0_f_328_1367" x="679" y="74" width="299.158" height="153" filterUnits="userSpaceOnUse" color-interpolation-filters="sRGB">
<feFlood flood-opacity="0" result="BackgroundImageFix"/>
<feBlend mode="normal" in="SourceGraphic" in2="BackgroundImageFix" result="shape"/>
<feGaussianBlur stdDeviation="3.5" result="effect1_foregroundBlur_328_1367"/>
</filter>
<filter id="filter1_d_328_1367" x="-158" y="28" width="1522.14" height="248.668" filterUnits="userSpaceOnUse" color-interpolation-filters="sRGB">
<feFlood flood-opacity="0" result="BackgroundImageFix"/>
<feColorMatrix in="SourceAlpha" type="matrix" values="0 0 0 0 0 0 0 0 0 0 0 0 0 0 0 0 0 0 127 0" result="hardAlpha"/>
<feOffset dx="10" dy="7"/>
<feGaussianBlur stdDeviation="7"/>
<feComposite in2="hardAlpha" operator="out"/>
<feColorMatrix type="matrix" values="0 0 0 0 0 0 0 0 0 0 0 0 0 0 0 0 0 0 0.07 0"/>
<feBlend mode="normal" in2="BackgroundImageFix" result="effect1_dropShadow_328_1367"/>
<feBlend mode="normal" in="SourceGraphic" in2="effect1_dropShadow_328_1367" result="shape"/>
</filter>
<filter id="filter2_f_328_1367" x="291.992" y="77" width="183.953" height="83.7227" filterUnits="userSpaceOnUse" color-interpolation-filters="sRGB">
<feFlood flood-opacity="0" result="BackgroundImageFix"/>
<feBlend mode="normal" in="SourceGraphic" in2="BackgroundImageFix" result="shape"/>
<feGaussianBlur stdDeviation="1" result="effect1_foregroundBlur_328_1367"/>
</filter>
<filter id="filter3_f_328_1367" x="433.188" y="103.254" width="125.814" height="57.4727" filterUnits="userSpaceOnUse" color-interpolation-filters="sRGB">
<feFlood flood-opacity="0" result="BackgroundImageFix"/>
<feBlend mode="normal" in="SourceGraphic" in2="BackgroundImageFix" result="shape"/>
<feGaussianBlur stdDeviation="1" result="effect1_foregroundBlur_328_1367"/>
</filter>
<filter id="filter4_f_328_1367" x="256" y="122.695" width="81.5176" height="38.0273" filterUnits="userSpaceOnUse" color-interpolation-filters="sRGB">
<feFlood flood-opacity="0" result="BackgroundImageFix"/>
<feBlend mode="normal" in="SourceGraphic" in2="BackgroundImageFix" result="shape"/>
<feGaussianBlur stdDeviation="1" result="effect1_foregroundBlur_328_1367"/>
</filter>
<filter id="filter5_f_328_1367" x="361.201" y="142.059" width="148.898" height="68.1953" filterUnits="userSpaceOnUse" color-interpolation-filters="sRGB">
<feFlood flood-opacity="0" result="BackgroundImageFix"/>
<feBlend mode="normal" in="SourceGraphic" in2="BackgroundImageFix" result="shape"/>
<feGaussianBlur stdDeviation="1" result="effect1_foregroundBlur_328_1367"/>
</filter>
<filter id="filter6_f_328_1367" x="312.746" y="140.68" width="102.086" height="47.0586" filterUnits="userSpaceOnUse" color-interpolation-filters="sRGB">
<feFlood flood-opacity="0" result="BackgroundImageFix"/>
<feBlend mode="normal" in="SourceGraphic" in2="BackgroundImageFix" result="shape"/>
<feGaussianBlur stdDeviation="1" result="effect1_foregroundBlur_328_1367"/>
</filter>
<filter id="filter7_f_328_1367" x="463.453" y="140.156" width="66.418" height="31.3984" filterUnits="userSpaceOnUse" color-interpolation-filters="sRGB">
<feFlood flood-opacity="0" result="BackgroundImageFix"/>
<feBlend mode="normal" in="SourceGraphic" in2="BackgroundImageFix" result="shape"/>
<feGaussianBlur stdDeviation="1" result="effect1_foregroundBlur_328_1367"/>
</filter>
<filter id="filter8_f_328_1367" x="518.834" y="33" width="58.166" height="27.9961" filterUnits="userSpaceOnUse" color-interpolation-filters="sRGB">
<feFlood flood-opacity="0" result="BackgroundImageFix"/>
<feBlend mode="normal" in="SourceGraphic" in2="BackgroundImageFix" result="shape"/>
<feGaussianBlur stdDeviation="1" result="effect1_foregroundBlur_328_1367"/>
</filter>
<filter id="filter9_f_328_1367" x="561.334" y="40.9023" width="40.666" height="20.0977" filterUnits="userSpaceOnUse" color-interpolation-filters="sRGB">
<feFlood flood-opacity="0" result="BackgroundImageFix"/>
<feBlend mode="normal" in="SourceGraphic" in2="BackgroundImageFix" result="shape"/>
<feGaussianBlur stdDeviation="1" result="effect1_foregroundBlur_328_1367"/>
</filter>
<filter id="filter10_f_328_1367" x="508" y="46.7539" width="27.334" height="14.2422" filterUnits="userSpaceOnUse" color-interpolation-filters="sRGB">
<feFlood flood-opacity="0" result="BackgroundImageFix"/>
<feBlend mode="normal" in="SourceGraphic" in2="BackgroundImageFix" result="shape"/>
<feGaussianBlur stdDeviation="1" result="effect1_foregroundBlur_328_1367"/>
</filter>
<filter id="filter11_f_328_1367" x="539.666" y="52.582" width="47.6152" height="23.3242" filterUnits="userSpaceOnUse" color-interpolation-filters="sRGB">
<feFlood flood-opacity="0" result="BackgroundImageFix"/>
<feBlend mode="normal" in="SourceGraphic" in2="BackgroundImageFix" result="shape"/>
<feGaussianBlur stdDeviation="1" result="effect1_foregroundBlur_328_1367"/>
</filter>
<filter id="filter12_f_328_1367" x="525.082" y="52.168" width="33.5234" height="16.9609" filterUnits="userSpaceOnUse" color-interpolation-filters="sRGB">
<feFlood flood-opacity="0" result="BackgroundImageFix"/>
<feBlend mode="normal" in="SourceGraphic" in2="BackgroundImageFix" result="shape"/>
<feGaussianBlur stdDeviation="1" result="effect1_foregroundBlur_328_1367"/>
</filter>
<filter id="filter13_f_328_1367" x="570.445" y="52.0117" width="22.7871" height="12.2461" filterUnits="userSpaceOnUse" color-interpolation-filters="sRGB">
<feFlood flood-opacity="0" result="BackgroundImageFix"/>
<feBlend mode="normal" in="SourceGraphic" in2="BackgroundImageFix" result="shape"/>
<feGaussianBlur stdDeviation="1" result="effect1_foregroundBlur_328_1367"/>
</filter>
<filter id="filter14_f_328_1367" x="1116.35" y="119.77" width="155.754" height="71.2305" filterUnits="userSpaceOnUse" color-interpolation-filters="sRGB">
<feFlood flood-opacity="0" result="BackgroundImageFix"/>
<feBlend mode="normal" in="SourceGraphic" in2="BackgroundImageFix" result="shape"/>
<feGaussianBlur stdDeviation="1" result="effect1_foregroundBlur_328_1367"/>
</filter>
<filter id="filter15_f_328_1367" x="1235.42" y="119.766" width="106.725" height="49.0938" filterUnits="userSpaceOnUse" color-interpolation-filters="sRGB">
<feFlood flood-opacity="0" result="BackgroundImageFix"/>
<feBlend mode="normal" in="SourceGraphic" in2="BackgroundImageFix" result="shape"/>
<feGaussianBlur stdDeviation="1" result="effect1_foregroundBlur_328_1367"/>
</filter>
<filter id="filter16_f_328_1367" x="1086" y="119.773" width="69.3711" height="32.6953" filterUnits="userSpaceOnUse" color-interpolation-filters="sRGB">
<feFlood flood-opacity="0" result="BackgroundImageFix"/>
<feBlend mode="normal" in="SourceGraphic" in2="BackgroundImageFix" result="shape"/>
<feGaussianBlur stdDeviation="1" result="effect1_foregroundBlur_328_1367"/>
</filter>
<filter id="filter17_f_328_1367" x="1174.72" y="78" width="126.191" height="58.1328" filterUnits="userSpaceOnUse" color-interpolation-filters="sRGB">
<feFlood flood-opacity="0" result="BackgroundImageFix"/>
<feBlend mode="normal" in="SourceGraphic" in2="BackgroundImageFix" result="shape"/>
<feGaussianBlur stdDeviation="1" result="effect1_foregroundBlur_328_1367"/>
</filter>
<filter id="filter18_f_328_1367" x="1133.86" y="96.9844" width="86.7148" height="40.3086" filterUnits="userSpaceOnUse" color-interpolation-filters="sRGB">
<feFlood flood-opacity="0" result="BackgroundImageFix"/>
<feBlend mode="normal" in="SourceGraphic" in2="BackgroundImageFix" result="shape"/>
<feGaussianBlur stdDeviation="1" result="effect1_foregroundBlur_328_1367"/>
</filter>
<filter id="filter19_f_328_1367" x="1260.95" y="110.633" width="56.6367" height="27.1055" filterUnits="userSpaceOnUse" color-interpolation-filters="sRGB">
<feFlood flood-opacity="0" result="BackgroundImageFix"/>
<feBlend mode="normal" in="SourceGraphic" in2="BackgroundImageFix" result="shape"/>
<feGaussianBlur stdDeviation="1" result="effect1_foregroundBlur_328_1367"/>
</filter>
<filter id="filter20_f_328_1367" x="1030.61" y="159" width="22.0547" height="12" filterUnits="userSpaceOnUse" color-interpolation-filters="sRGB">
<feFlood flood-opacity="0" result="BackgroundImageFix"/>
<feBlend mode="normal" in="SourceGraphic" in2="BackgroundImageFix" result="shape"/>
<feGaussianBlur stdDeviation="1" result="effect1_foregroundBlur_328_1367"/>
</filter>
<filter id="filter21_f_328_1367" x="1044.78" y="161.633" width="16.2227" height="9.36719" filterUnits="userSpaceOnUse" color-interpolation-filters="sRGB">
<feFlood flood-opacity="0" result="BackgroundImageFix"/>
<feBlend mode="normal" in="SourceGraphic" in2="BackgroundImageFix" result="shape"/>
<feGaussianBlur stdDeviation="1" result="effect1_foregroundBlur_328_1367"/>
</filter>
<filter id="filter22_f_328_1367" x="1027" y="163.586" width="11.7773" height="7.41406" filterUnits="userSpaceOnUse" color-interpolation-filters="sRGB">
<feFlood flood-opacity="0" result="BackgroundImageFix"/>
<feBlend mode="normal" in="SourceGraphic" in2="BackgroundImageFix" result="shape"/>
<feGaussianBlur stdDeviation="1" result="effect1_foregroundBlur_328_1367"/>
</filter>
<filter id="filter23_f_328_1367" x="1037.55" y="165.527" width="18.5391" height="10.4414" filterUnits="userSpaceOnUse" color-interpolation-filters="sRGB">
<feFlood flood-opacity="0" result="BackgroundImageFix"/>
<feBlend mode="normal" in="SourceGraphic" in2="BackgroundImageFix" result="shape"/>
<feGaussianBlur stdDeviation="1" result="effect1_foregroundBlur_328_1367"/>
</filter>
<filter id="filter24_f_328_1367" x="1032.69" y="165.391" width="13.8418" height="8.32031" filterUnits="userSpaceOnUse" color-interpolation-filters="sRGB">
<feFlood flood-opacity="0" result="BackgroundImageFix"/>
<feBlend mode="normal" in="SourceGraphic" in2="BackgroundImageFix" result="shape"/>
<feGaussianBlur stdDeviation="1" result="effect1_foregroundBlur_328_1367"/>
</filter>
<filter id="filter25_f_328_1367" x="1047.81" y="165.336" width="10.2617" height="6.75" filterUnits="userSpaceOnUse" color-interpolation-filters="sRGB">
<feFlood flood-opacity="0" result="BackgroundImageFix"/>
<feBlend mode="normal" in="SourceGraphic" in2="BackgroundImageFix" result="shape"/>
<feGaussianBlur stdDeviation="1" result="effect1_foregroundBlur_328_1367"/>
</filter>
<filter id="filter26_d_328_1367" x="1204" y="58" width="540.271" height="229" filterUnits="userSpaceOnUse" color-interpolation-filters="sRGB">
<feFlood flood-opacity="0" result="BackgroundImageFix"/>
<feColorMatrix in="SourceAlpha" type="matrix" values="0 0 0 0 0 0 0 0 0 0 0 0 0 0 0 0 0 0 127 0" result="hardAlpha"/>
<feOffset dx="-20" dy="12"/>
<feGaussianBlur stdDeviation="13"/>
<feComposite in2="hardAlpha" operator="out"/>
<feColorMatrix type="matrix" values="0 0 0 0 0 0 0 0 0 0 0 0 0 0 0 0 0 0 0.07 0"/>
<feBlend mode="normal" in2="BackgroundImageFix" result="effect1_dropShadow_328_1367"/>
<feBlend mode="normal" in="SourceGraphic" in2="effect1_dropShadow_328_1367" result="shape"/>
</filter>
<filter id="filter27_d_328_1367" x="1295" y="188" width="540.271" height="229" filterUnits="userSpaceOnUse" color-interpolation-filters="sRGB">
<feFlood flood-opacity="0" result="BackgroundImageFix"/>
<feColorMatrix in="SourceAlpha" type="matrix" values="0 0 0 0 0 0 0 0 0 0 0 0 0 0 0 0 0 0 127 0" result="hardAlpha"/>
<feOffset dx="-20" dy="12"/>
<feGaussianBlur stdDeviation="13"/>
<feComposite in2="hardAlpha" operator="out"/>
<feColorMatrix type="matrix" values="0 0 0 0 0 0 0 0 0 0 0 0 0 0 0 0 0 0 0.07 0"/>
<feBlend mode="normal" in2="BackgroundImageFix" result="effect1_dropShadow_328_1367"/>
<feBlend mode="normal" in="SourceGraphic" in2="effect1_dropShadow_328_1367" result="shape"/>
</filter>
<filter id="filter28_d_328_1367" x="1329" y="-35" width="540.271" height="229" filterUnits="userSpaceOnUse" color-interpolation-filters="sRGB">
<feFlood flood-opacity="0" result="BackgroundImageFix"/>
<feColorMatrix in="SourceAlpha" type="matrix" values="0 0 0 0 0 0 0 0 0 0 0 0 0 0 0 0 0 0 127 0" result="hardAlpha"/>
<feOffset dx="-20" dy="12"/>
<feGaussianBlur stdDeviation="13"/>
<feComposite in2="hardAlpha" operator="out"/>
<feColorMatrix type="matrix" values="0 0 0 0 0 0 0 0 0 0 0 0 0 0 0 0 0 0 0.07 0"/>
<feBlend mode="normal" in2="BackgroundImageFix" result="effect1_dropShadow_328_1367"/>
<feBlend mode="normal" in="SourceGraphic" in2="effect1_dropShadow_328_1367" result="shape"/>
</filter>
<filter id="filter29_d_328_1367" x="1092" y="-30" width="540.271" height="229" filterUnits="userSpaceOnUse" color-interpolation-filters="sRGB">
<feFlood flood-opacity="0" result="BackgroundImageFix"/>
<feColorMatrix in="SourceAlpha" type="matrix" values="0 0 0 0 0 0 0 0 0 0 0 0 0 0 0 0 0 0 127 0" result="hardAlpha"/>
<feOffset dx="-20" dy="12"/>
<feGaussianBlur stdDeviation="13"/>
<feComposite in2="hardAlpha" operator="out"/>
<feColorMatrix type="matrix" values="0 0 0 0 0 0 0 0 0 0 0 0 0 0 0 0 0 0 0.07 0"/>
<feBlend mode="normal" in2="BackgroundImageFix" result="effect1_dropShadow_328_1367"/>
<feBlend mode="normal" in="SourceGraphic" in2="effect1_dropShadow_328_1367" result="shape"/>
</filter>
<filter id="filter30_d_328_1367" x="-12" y="-25" width="540.271" height="229" filterUnits="userSpaceOnUse" color-interpolation-filters="sRGB">
<feFlood flood-opacity="0" result="BackgroundImageFix"/>
<feColorMatrix in="SourceAlpha" type="matrix" values="0 0 0 0 0 0 0 0 0 0 0 0 0 0 0 0 0 0 127 0" result="hardAlpha"/>
<feOffset dx="-20" dy="12"/>
<feGaussianBlur stdDeviation="13"/>
<feComposite in2="hardAlpha" operator="out"/>
<feColorMatrix type="matrix" values="0 0 0 0 0 0 0 0 0 0 0 0 0 0 0 0 0 0 0.07 0"/>
<feBlend mode="normal" in2="BackgroundImageFix" result="effect1_dropShadow_328_1367"/>
<feBlend mode="normal" in="SourceGraphic" in2="effect1_dropShadow_328_1367" result="shape"/>
</filter>
<filter id="filter31_d_328_1367" x="-227" y="-14" width="540.271" height="229" filterUnits="userSpaceOnUse" color-interpolation-filters="sRGB">
<feFlood flood-opacity="0" result="BackgroundImageFix"/>
<feColorMatrix in="SourceAlpha" type="matrix" values="0 0 0 0 0 0 0 0 0 0 0 0 0 0 0 0 0 0 127 0" result="hardAlpha"/>
<feOffset dx="-20" dy="12"/>
<feGaussianBlur stdDeviation="13"/>
<feComposite in2="hardAlpha" operator="out"/>
<feColorMatrix type="matrix" values="0 0 0 0 0 0 0 0 0 0 0 0 0 0 0 0 0 0 0.07 0"/>
<feBlend mode="normal" in2="BackgroundImageFix" result="effect1_dropShadow_328_1367"/>
<feBlend mode="normal" in="SourceGraphic" in2="effect1_dropShadow_328_1367" result="shape"/>
</filter>
<filter id="filter32_d_328_1367" x="-157" y="143" width="540.271" height="229" filterUnits="userSpaceOnUse" color-interpolation-filters="sRGB">
<feFlood flood-opacity="0" result="BackgroundImageFix"/>
<feColorMatrix in="SourceAlpha" type="matrix" values="0 0 0 0 0 0 0 0 0 0 0 0 0 0 0 0 0 0 127 0" result="hardAlpha"/>
<feOffset dx="-20" dy="12"/>
<feGaussianBlur stdDeviation="13"/>
<feComposite in2="hardAlpha" operator="out"/>
<feColorMatrix type="matrix" values="0 0 0 0 0 0 0 0 0 0 0 0 0 0 0 0 0 0 0.07 0"/>
<feBlend mode="normal" in2="BackgroundImageFix" result="effect1_dropShadow_328_1367"/>
<feBlend mode="normal" in="SourceGraphic" in2="effect1_dropShadow_328_1367" result="shape"/>
</filter>
<filter id="filter33_d_328_1367" x="51" y="188" width="540.271" height="229" filterUnits="userSpaceOnUse" color-interpolation-filters="sRGB">
<feFlood flood-opacity="0" result="BackgroundImageFix"/>
<feColorMatrix in="SourceAlpha" type="matrix" values="0 0 0 0 0 0 0 0 0 0 0 0 0 0 0 0 0 0 127 0" result="hardAlpha"/>
<feOffset dx="-20" dy="12"/>
<feGaussianBlur stdDeviation="13"/>
<feComposite in2="hardAlpha" operator="out"/>
<feColorMatrix type="matrix" values="0 0 0 0 0 0 0 0 0 0 0 0 0 0 0 0 0 0 0.07 0"/>
<feBlend mode="normal" in2="BackgroundImageFix" result="effect1_dropShadow_328_1367"/>
<feBlend mode="normal" in="SourceGraphic" in2="effect1_dropShadow_328_1367" result="shape"/>
</filter>
<clipPath id="clip0_328_1367">
<rect width="1654" height="300" fill="white"/>
</clipPath>
</defs>
</svg>
