<svg width="1654" height="300" viewBox="0 0 1654 300" fill="none" xmlns="http://www.w3.org/2000/svg">
<rect width="1654" height="300" fill="#BEE4F0"/>
<path d="M621.521 133.982L614.663 137.516L619.613 143.434L611.898 143.377L613.53 150.917L606.726 147.281L604.667 154.716L600.332 148.334L595.054 153.961L594.181 146.296L586.893 148.825L589.682 141.632L582.053 140.485L587.866 135.412L581.644 130.85L589.148 129.06L585.758 122.13L593.235 124.032L593.455 116.32L599.191 121.479L602.969 114.752L605.651 121.986L612.123 117.786L611.136 125.437L618.818 124.726L614.388 131.042L621.521 133.982Z" fill="#3B72FF"/>
<path d="M1069.54 134.482L1062.69 138.097L1067.64 144.168L1059.93 144.101L1061.57 151.831L1054.76 148.097L1052.71 155.715L1048.37 149.17L1043.1 154.931L1042.21 147.074L1034.93 149.658L1037.71 142.289L1030.08 141.105L1035.89 135.911L1029.66 131.23L1037.16 129.402L1033.77 122.295L1041.24 124.253L1041.46 116.349L1047.2 121.642L1050.97 114.752L1053.66 122.169L1060.13 117.871L1059.15 125.713L1066.83 124.991L1062.41 131.461L1069.54 134.482Z" fill="#3B72FF"/>
<path d="M1311.6 162.189L1324.28 135L1341.49 159.575L1311.6 162.189Z" fill="#7B4DFF"/>
<path d="M1241.24 100.73L1226.24 74.7497H1256.24L1241.24 100.73Z" fill="#7B4DFF"/>
<path d="M1416.98 210.13L1422.19 239.675L1394 229.414L1416.98 210.13Z" fill="#7B4DFF"/>
<path d="M199.034 70.2711L205.603 40.9991L227.668 61.3242L199.034 70.2711Z" fill="#7B4DFF"/>
<path d="M322.916 89.1581L337.916 63.1773L352.916 89.1581L322.916 89.1581Z" fill="#7B4DFF"/>
<path d="M113.607 139.608L138.702 146.333L120.331 164.704L113.607 139.608Z" fill="#FFD058"/>
<path d="M1481.6 141.287L1507.49 143.551L1492.58 164.834L1481.6 141.287Z" fill="#FFD058"/>
<path d="M232.202 169.804L250.162 151.03L257.44 175.971L232.202 169.804Z" fill="#FFD058"/>
<path d="M348.827 208.997L373.241 200.111L368.73 225.698L348.827 208.997Z" fill="#FFD058"/>
<ellipse rx="21.4314" ry="21.431" transform="matrix(-0.183485 0.983022 -0.983021 -0.183492 1555 248.002)" fill="#7B4DFF"/>
<mask id="mask0_328_1367" style="mask-type:alpha" maskUnits="userSpaceOnUse" x="1533" y="226" width="44" height="44">
<ellipse rx="21.4314" ry="21.431" transform="matrix(-0.183485 0.983022 -0.983021 -0.183492 1555 247.998)" fill="#36BFC7"/>
</mask>
<g mask="url(#mask0_328_1367)">
<path d="M1570.21 249.776C1568.05 248.373 1560.1 248.001 1558.18 242.123C1556.39 236.638 1556.79 232.727 1554.79 232.304C1552.79 231.88 1551.55 233.684 1551.77 236.389C1551.92 238.18 1552.09 240.708 1554.73 244.514C1555.95 246.284 1559.52 248.235 1559.87 249.854C1560.17 251.229 1558.52 253.453 1556.28 251.103C1554.95 249.706 1552.89 243.186 1550.05 244.528C1548.41 245.303 1549.3 249.434 1551.89 251.481C1554.69 253.701 1562.59 253.265 1563.15 256.692C1563.72 260.119 1561.98 263.411 1558.98 261.3C1555.98 259.19 1560.24 248.102 1555.09 240.753C1552.26 236.715 1547.31 233.967 1543.65 234.67C1539.16 235.535 1542.46 238.41 1544.75 240.555C1547.67 243.29 1547.88 246.961 1546.53 248.684C1545.54 249.95 1543.05 248.834 1541.61 246.934C1540.17 245.034 1538.59 243.461 1537.05 244.079C1535.5 244.696 1535.9 250.82 1543.5 251.94C1550.72 253.004 1551.09 255.444 1552.56 257.525C1554.02 259.607 1566.91 266.523 1567.97 258.36C1569.02 250.197 1568.34 243.795 1563.93 241.68C1559.52 239.566 1558.66 238.437 1558.37 235.129C1558.09 231.821 1561.54 230.899 1563.61 232.164C1565.68 233.428 1564.02 234.395 1564.95 236.872C1565.75 238.989 1566.79 239.289 1568.82 241.239C1570.96 243.286 1572.16 247.082 1572.59 249.3" stroke="#F6F6F6"/>
</g>
<ellipse rx="21.4314" ry="21.431" transform="matrix(-0.183485 0.983022 -0.983021 -0.183492 98.9985 61.0023)" fill="#7B4DFF"/>
<mask id="mask1_328_1367" style="mask-type:alpha" maskUnits="userSpaceOnUse" x="77" y="39" width="44" height="44">
<ellipse rx="21.4314" ry="21.431" transform="matrix(-0.183485 0.983022 -0.983021 -0.183492 99.0005 60.9984)" fill="#36BFC7"/>
</mask>
<g mask="url(#mask1_328_1367)">
<path d="M114.215 62.776C112.052 61.3733 104.102 61.0013 102.184 55.1232C100.393 49.6384 100.791 45.7272 98.7902 45.3036C96.7894 44.88 95.5467 46.6838 95.7733 49.3892C95.9233 51.1797 96.0888 53.7078 98.7261 57.5141C99.9521 59.2835 103.515 61.2347 103.867 62.8544C104.166 64.2294 102.517 66.4531 100.282 64.1033C98.9536 62.7057 96.8893 56.1865 94.0503 57.5281C92.4106 58.303 93.3006 62.434 95.8874 64.4814C98.6923 66.7013 106.588 66.265 107.154 69.6918C107.72 73.1186 105.977 76.411 102.981 74.3003C99.9847 72.1896 104.238 61.1022 99.092 53.7531C96.2642 49.7148 91.3058 46.967 87.6524 47.6699C83.1555 48.535 86.4561 51.4095 88.7478 53.5551C91.6686 56.2896 91.8751 59.9612 90.5267 61.6836C89.5352 62.95 87.0518 61.8337 85.6094 59.9339C84.1671 58.0341 82.5941 56.4609 81.0491 57.0787C79.5042 57.6965 79.9005 63.82 87.5008 64.9405C94.7157 66.0041 95.0911 68.4436 96.5564 70.5254C98.0217 72.6072 110.914 79.523 111.965 71.36C113.017 63.1971 112.344 56.7948 107.934 54.6802C103.524 52.5656 102.657 51.437 102.373 48.129C102.09 44.8211 105.544 43.8988 107.612 45.1635C109.681 46.4282 108.02 47.3955 108.952 49.8716C109.749 51.9885 110.785 52.2891 112.823 54.239C114.963 56.2863 116.157 60.0823 116.589 62.2998" stroke="#F6F6F6"/>
</g>
<path d="M913.429 149.303C908.585 113.654 875.92 86 836.46 86C805.912 86 779.376 102.685 767.261 128.982C743.452 135.631 725.617 156.636 725.617 179.214C725.617 207.769 750.479 231 781.039 231H902.966C927.417 231 947.303 212.419 947.303 189.571C947.286 180.287 943.94 171.276 937.8 163.977C931.66 156.678 923.08 151.512 913.429 149.303V149.303Z" fill="#EFEFEF"/>
<path d="M748.573 174.833C745.309 150.324 723.295 131.312 696.702 131.312C676.115 131.312 658.233 142.784 650.068 160.863C634.023 165.434 622.004 179.875 622.004 195.397C622.004 215.029 638.759 231 659.353 231H741.521C758 231 771.401 218.226 771.401 202.518C771.389 196.135 769.135 189.94 764.997 184.922C760.859 179.904 755.077 176.352 748.573 174.833Z" fill="#EFEFEF"/>
<path d="M999.173 174.833C995.908 150.324 973.895 131.312 947.302 131.312C926.715 131.312 908.832 142.784 900.668 160.863C884.623 165.434 872.604 179.875 872.604 195.397C872.604 215.029 889.358 231 909.953 231H992.121C1008.6 231 1022 218.226 1022 202.518C1021.99 196.135 1019.73 189.94 1015.6 184.922C1011.46 179.904 1005.68 176.352 999.173 174.833Z" fill="#EFEFEF"/>
<path d="M795.161 151.48C795.261 151.46 795.411 151.45 795.611 151.45C796.351 151.45 796.721 151.88 796.721 152.74C796.721 153.22 796.611 153.63 796.391 153.97C796.191 154.29 795.871 154.49 795.431 154.57C792.931 155.07 791.151 155.45 790.091 155.71C790.051 155.87 790.011 156.11 789.971 156.43C789.411 160.15 788.291 162.94 786.611 164.8C784.931 166.66 782.851 167.59 780.371 167.59C778.691 167.59 777.401 167.16 776.501 166.3C775.601 165.44 775.151 164.3 775.151 162.88C775.151 160.88 776.111 159.08 778.031 157.48C779.971 155.86 782.821 154.49 786.581 153.37C786.681 152.81 786.881 151.45 787.181 149.29C787.261 148.81 787.391 147.94 787.571 146.68C786.631 148.74 785.451 150.29 784.031 151.33C782.611 152.35 781.011 152.86 779.231 152.86C777.531 152.86 776.251 152.34 775.391 151.3C774.531 150.26 774.101 148.9 774.101 147.22C774.101 146.62 774.161 146.05 774.281 145.51C774.401 144.97 774.571 144.33 774.791 143.59C775.051 142.71 775.241 141.99 775.361 141.43C775.481 140.87 775.541 140.25 775.541 139.57C775.541 138.61 775.181 138.13 774.461 138.13C774.001 138.13 773.481 138.31 772.901 138.67C772.341 139.01 771.751 139.49 771.131 140.11C770.791 140.45 770.461 140.62 770.141 140.62C769.841 140.62 769.591 140.5 769.391 140.26C769.211 140.02 769.121 139.72 769.121 139.36C769.121 138.62 769.411 137.92 769.991 137.26C770.731 136.44 771.621 135.79 772.661 135.31C773.701 134.81 774.781 134.56 775.901 134.56C777.121 134.56 778.071 134.93 778.751 135.67C779.451 136.41 779.801 137.5 779.801 138.94C779.801 139.72 779.731 140.45 779.591 141.13C779.451 141.81 779.251 142.59 778.991 143.47C778.771 144.29 778.611 144.92 778.511 145.36C778.431 145.8 778.391 146.24 778.391 146.68C778.391 147.6 778.551 148.25 778.871 148.63C779.191 148.99 779.791 149.17 780.671 149.17C781.691 149.17 782.771 148.65 783.911 147.61C785.051 146.55 786.061 145.09 786.941 143.23C787.821 141.37 788.411 139.29 788.711 136.99C788.831 136.09 789.061 135.46 789.401 135.1C789.761 134.74 790.281 134.56 790.961 134.56C792.361 134.56 793.061 135.26 793.061 136.66C793.061 136.9 793.051 137.09 793.031 137.23C792.771 139.09 792.441 141.16 792.041 143.44C791.561 146.32 791.081 149.28 790.601 152.32C791.881 152.06 793.401 151.78 795.161 151.48ZM786.071 156.82C783.611 157.58 781.781 158.42 780.581 159.34C779.401 160.26 778.811 161.31 778.811 162.49C778.811 163.05 778.991 163.53 779.351 163.93C779.711 164.33 780.201 164.53 780.821 164.53C782.101 164.53 783.191 163.93 784.091 162.73C785.011 161.53 785.661 159.65 786.041 157.09L786.071 156.82ZM811.698 153.31C811.958 153.31 812.158 153.43 812.298 153.67C812.458 153.91 812.538 154.24 812.538 154.66C812.538 155.46 812.348 156.08 811.968 156.52C811.088 157.56 810.118 158.43 809.058 159.13C808.018 159.81 806.838 160.15 805.518 160.15C804.498 160.15 803.588 159.96 802.788 159.58C802.008 159.2 801.388 158.66 800.928 157.96C799.788 159.4 798.438 160.12 796.878 160.12C795.778 160.12 794.908 159.8 794.268 159.16C793.628 158.52 793.308 157.67 793.308 156.61C793.308 155.61 793.538 154.8 793.998 154.18C794.458 153.56 795.108 153.25 795.948 153.25C796.668 153.25 797.028 153.52 797.028 154.06C797.028 154.2 797.008 154.45 796.968 154.81C796.908 155.53 796.878 155.94 796.878 156.04C796.878 156.64 797.138 156.94 797.658 156.94C798.038 156.94 798.398 156.72 798.738 156.28C799.098 155.82 799.388 155.2 799.608 154.42C799.848 153.64 799.968 152.78 799.968 151.84C799.968 151.12 799.878 150.52 799.698 150.04C799.518 149.54 799.298 149.29 799.038 149.29C798.818 149.29 798.658 149.35 798.558 149.47C798.458 149.57 798.358 149.75 798.258 150.01C798.138 150.33 797.978 150.59 797.778 150.79C797.578 150.97 797.228 151.06 796.728 151.06C796.288 151.06 795.938 150.91 795.678 150.61C795.418 150.29 795.288 149.81 795.288 149.17C795.288 148.15 795.598 147.35 796.218 146.77C796.838 146.19 797.638 145.9 798.618 145.9C799.458 145.9 800.218 146.11 800.898 146.53C801.578 146.93 802.098 147.52 802.458 148.3C803.058 147.5 803.728 146.9 804.468 146.5C805.228 146.1 805.968 145.9 806.688 145.9C807.468 145.9 808.058 146.08 808.458 146.44C808.878 146.8 809.088 147.38 809.088 148.18C809.088 149.08 808.918 149.79 808.578 150.31C808.238 150.81 807.828 151.06 807.348 151.06C806.908 151.06 806.608 150.97 806.448 150.79C806.288 150.61 806.168 150.35 806.088 150.01C806.048 149.77 805.988 149.59 805.908 149.47C805.828 149.35 805.688 149.29 805.488 149.29C805.248 149.29 804.988 149.52 804.708 149.98C804.448 150.42 804.218 151.01 804.018 151.75C803.838 152.49 803.748 153.26 803.748 154.06C803.748 155 803.968 155.73 804.408 156.25C804.868 156.75 805.488 157 806.268 157C807.048 157 807.778 156.74 808.458 156.22C809.158 155.68 809.968 154.85 810.888 153.73C811.128 153.45 811.398 153.31 811.698 153.31ZM813.514 160.15C812.274 160.15 811.284 159.7 810.544 158.8C809.804 157.9 809.434 156.72 809.434 155.26C809.434 153.66 809.804 152.15 810.544 150.73C811.284 149.29 812.264 148.14 813.484 147.28C814.724 146.4 816.034 145.96 817.414 145.96C817.854 145.96 818.144 146.05 818.284 146.23C818.444 146.39 818.574 146.69 818.674 147.13C819.094 147.05 819.534 147.01 819.994 147.01C820.974 147.01 821.464 147.36 821.464 148.06C821.464 148.48 821.314 149.48 821.014 151.06C820.554 153.36 820.324 154.96 820.324 155.86C820.324 156.16 820.394 156.4 820.534 156.58C820.694 156.76 820.894 156.85 821.134 156.85C821.514 156.85 821.974 156.61 822.514 156.13C823.054 155.63 823.784 154.83 824.704 153.73C824.944 153.45 825.214 153.31 825.514 153.31C825.774 153.31 825.974 153.43 826.114 153.67C826.274 153.91 826.354 154.24 826.354 154.66C826.354 155.46 826.164 156.08 825.784 156.52C824.964 157.54 824.094 158.4 823.174 159.1C822.254 159.8 821.364 160.15 820.504 160.15C819.844 160.15 819.234 159.93 818.674 159.49C818.134 159.03 817.724 158.41 817.444 157.63C816.404 159.31 815.094 160.15 813.514 160.15ZM814.594 157.12C815.034 157.12 815.454 156.86 815.854 156.34C816.254 155.82 816.544 155.13 816.724 154.27L817.834 148.75C816.994 148.77 816.214 149.09 815.494 149.71C814.794 150.31 814.234 151.11 813.814 152.11C813.394 153.11 813.184 154.17 813.184 155.29C813.184 155.91 813.304 156.37 813.544 156.67C813.804 156.97 814.154 157.12 814.594 157.12ZM827.606 160.15C826.366 160.15 825.376 159.7 824.636 158.8C823.896 157.9 823.526 156.72 823.526 155.26C823.526 153.66 823.896 152.15 824.636 150.73C825.376 149.29 826.356 148.14 827.576 147.28C828.816 146.4 830.126 145.96 831.506 145.96C831.946 145.96 832.236 146.05 832.376 146.23C832.536 146.39 832.666 146.69 832.766 147.13C833.186 147.05 833.626 147.01 834.086 147.01C835.066 147.01 835.556 147.36 835.556 148.06C835.556 148.48 835.406 149.48 835.106 151.06C834.646 153.36 834.416 154.96 834.416 155.86C834.416 156.16 834.486 156.4 834.626 156.58C834.786 156.76 834.986 156.85 835.226 156.85C835.606 156.85 836.066 156.61 836.606 156.13C837.146 155.63 837.876 154.83 838.796 153.73C839.036 153.45 839.306 153.31 839.606 153.31C839.866 153.31 840.066 153.43 840.206 153.67C840.366 153.91 840.446 154.24 840.446 154.66C840.446 155.46 840.256 156.08 839.876 156.52C839.056 157.54 838.186 158.4 837.266 159.1C836.346 159.8 835.456 160.15 834.596 160.15C833.936 160.15 833.326 159.93 832.766 159.49C832.226 159.03 831.816 158.41 831.536 157.63C830.496 159.31 829.186 160.15 827.606 160.15ZM828.686 157.12C829.126 157.12 829.546 156.86 829.946 156.34C830.346 155.82 830.636 155.13 830.816 154.27L831.926 148.75C831.086 148.77 830.306 149.09 829.586 149.71C828.886 150.31 828.326 151.11 827.906 152.11C827.486 153.11 827.276 154.17 827.276 155.29C827.276 155.91 827.396 156.37 827.636 156.67C827.896 156.97 828.246 157.12 828.686 157.12ZM853.847 153.31C854.107 153.31 854.307 153.43 854.447 153.67C854.607 153.91 854.687 154.24 854.687 154.66C854.687 155.46 854.497 156.08 854.117 156.52C853.197 157.58 852.247 158.45 851.267 159.13C850.307 159.81 849.207 160.15 847.967 160.15C846.927 160.15 846.197 159.83 845.777 159.19C845.357 158.55 845.147 157.59 845.147 156.31C845.147 155.77 845.197 155.12 845.297 154.36C843.537 154.36 842.317 154.34 841.637 154.3C841.597 154.86 841.577 155.25 841.577 155.47V156.1C841.557 157.34 841.527 158.21 841.487 158.71C841.447 159.21 841.327 159.58 841.127 159.82C840.927 160.04 840.597 160.15 840.137 160.15C839.377 160.15 838.837 159.75 838.517 158.95C838.217 158.15 838.067 156.87 838.067 155.11C838.067 152.51 838.437 150.04 839.177 147.7C839.357 147.12 839.647 146.7 840.047 146.44C840.447 146.16 841.027 146.02 841.787 146.02C842.187 146.02 842.467 146.07 842.627 146.17C842.787 146.27 842.867 146.46 842.867 146.74C842.867 147.06 842.717 147.78 842.417 148.9C842.257 149.56 842.107 150.36 841.967 151.3H845.807C846.007 150.36 846.297 149.16 846.677 147.7C846.837 147.1 847.077 146.67 847.397 146.41C847.737 146.15 848.237 146.02 848.897 146.02C849.357 146.02 849.677 146.08 849.857 146.2C850.037 146.3 850.127 146.5 850.127 146.8C850.127 147.3 849.877 148.67 849.377 150.91C848.817 153.47 848.537 155.05 848.537 155.65C848.537 156.03 848.617 156.33 848.777 156.55C848.937 156.75 849.147 156.85 849.407 156.85C849.807 156.85 850.277 156.61 850.817 156.13C851.377 155.63 852.117 154.83 853.037 153.73C853.277 153.45 853.547 153.31 853.847 153.31ZM855.936 160.15C854.696 160.15 853.706 159.7 852.966 158.8C852.226 157.9 851.856 156.72 851.856 155.26C851.856 153.66 852.226 152.15 852.966 150.73C853.706 149.29 854.686 148.14 855.906 147.28C857.146 146.4 858.456 145.96 859.836 145.96C860.276 145.96 860.566 146.05 860.706 146.23C860.866 146.39 860.996 146.69 861.096 147.13C861.516 147.05 861.956 147.01 862.416 147.01C863.396 147.01 863.886 147.36 863.886 148.06C863.886 148.48 863.736 149.48 863.436 151.06C862.976 153.36 862.746 154.96 862.746 155.86C862.746 156.16 862.816 156.4 862.956 156.58C863.116 156.76 863.316 156.85 863.556 156.85C863.936 156.85 864.396 156.61 864.936 156.13C865.476 155.63 866.206 154.83 867.126 153.73C867.366 153.45 867.636 153.31 867.936 153.31C868.196 153.31 868.396 153.43 868.536 153.67C868.696 153.91 868.776 154.24 868.776 154.66C868.776 155.46 868.586 156.08 868.206 156.52C867.386 157.54 866.516 158.4 865.596 159.1C864.676 159.8 863.786 160.15 862.926 160.15C862.266 160.15 861.656 159.93 861.096 159.49C860.556 159.03 860.146 158.41 859.866 157.63C858.826 159.31 857.516 160.15 855.936 160.15ZM857.016 157.12C857.456 157.12 857.876 156.86 858.276 156.34C858.676 155.82 858.966 155.13 859.146 154.27L860.256 148.75C859.416 148.77 858.636 149.09 857.916 149.71C857.216 150.31 856.656 151.11 856.236 152.11C855.816 153.11 855.606 154.17 855.606 155.29C855.606 155.91 855.726 156.37 855.966 156.67C856.226 156.97 856.576 157.12 857.016 157.12ZM870.027 160.15C868.787 160.15 867.797 159.7 867.057 158.8C866.317 157.9 865.947 156.72 865.947 155.26C865.947 153.66 866.317 152.15 867.057 150.73C867.797 149.29 868.777 148.14 869.997 147.28C871.237 146.4 872.547 145.96 873.927 145.96C874.367 145.96 874.657 146.05 874.797 146.23C874.957 146.39 875.087 146.69 875.187 147.13C875.607 147.05 876.047 147.01 876.507 147.01C877.487 147.01 877.977 147.36 877.977 148.06C877.977 148.48 877.827 149.48 877.527 151.06C877.067 153.36 876.837 154.96 876.837 155.86C876.837 156.16 876.907 156.4 877.047 156.58C877.207 156.76 877.407 156.85 877.647 156.85C878.027 156.85 878.487 156.61 879.027 156.13C879.567 155.63 880.297 154.83 881.217 153.73C881.457 153.45 881.727 153.31 882.027 153.31C882.287 153.31 882.487 153.43 882.627 153.67C882.787 153.91 882.867 154.24 882.867 154.66C882.867 155.46 882.677 156.08 882.297 156.52C881.477 157.54 880.607 158.4 879.687 159.1C878.767 159.8 877.877 160.15 877.017 160.15C876.357 160.15 875.747 159.93 875.187 159.49C874.647 159.03 874.237 158.41 873.957 157.63C872.917 159.31 871.607 160.15 870.027 160.15ZM871.107 157.12C871.547 157.12 871.967 156.86 872.367 156.34C872.767 155.82 873.057 155.13 873.237 154.27L874.347 148.75C873.507 148.77 872.727 149.09 872.007 149.71C871.307 150.31 870.747 151.11 870.327 152.11C869.907 153.11 869.697 154.17 869.697 155.29C869.697 155.91 869.817 156.37 870.057 156.67C870.317 156.97 870.667 157.12 871.107 157.12ZM785.179 206.37C785.439 206.37 785.639 206.5 785.779 206.76C785.939 207 786.019 207.31 786.019 207.69C786.019 208.15 785.949 208.51 785.809 208.77C785.669 209.03 785.449 209.26 785.149 209.46L779.389 213.33C778.629 217.47 777.629 220.72 776.389 223.08C775.169 225.46 773.609 226.65 771.709 226.65C770.689 226.65 769.859 226.33 769.219 225.69C768.579 225.07 768.259 224.25 768.259 223.23C768.259 222.29 768.469 221.33 768.889 220.35C769.329 219.37 770.129 218.24 771.289 216.96C772.469 215.7 774.129 214.25 776.269 212.61L776.359 211.92C776.499 211.18 776.659 210.12 776.839 208.74C776.439 210.18 775.879 211.28 775.159 212.04C774.439 212.78 773.679 213.15 772.879 213.15C771.979 213.15 771.239 212.74 770.659 211.92C770.099 211.08 769.819 210.04 769.819 208.8C769.819 207.3 769.919 205.93 770.119 204.69C770.319 203.43 770.649 202.1 771.109 200.7C771.309 200.1 771.589 199.67 771.949 199.41C772.309 199.15 772.879 199.02 773.659 199.02C774.099 199.02 774.399 199.09 774.559 199.23C774.739 199.37 774.829 199.58 774.829 199.86C774.829 200.02 774.719 200.56 774.499 201.48C774.299 202.22 774.139 202.89 774.019 203.49C773.859 204.31 773.719 205.1 773.599 205.86C773.479 206.6 773.419 207.21 773.419 207.69C773.419 208.45 773.629 208.83 774.049 208.83C774.349 208.83 774.719 208.53 775.159 207.93C775.619 207.33 776.099 206.42 776.599 205.2C777.119 203.98 777.619 202.48 778.099 200.7C778.259 200.1 778.499 199.67 778.819 199.41C779.159 199.15 779.659 199.02 780.319 199.02C780.779 199.02 781.099 199.08 781.279 199.2C781.459 199.32 781.549 199.52 781.549 199.8C781.549 200.3 781.289 202.02 780.769 204.96L779.989 209.79C781.529 208.63 783.029 207.57 784.489 206.61C784.749 206.45 784.979 206.37 785.179 206.37ZM772.039 223.74C772.539 223.74 773.099 223.16 773.719 222C774.339 220.84 774.959 218.91 775.579 216.21C774.039 217.51 772.919 218.69 772.219 219.75C771.539 220.83 771.199 221.77 771.199 222.57C771.199 222.91 771.259 223.19 771.379 223.41C771.519 223.63 771.739 223.74 772.039 223.74ZM800.487 206.31C800.747 206.31 800.947 206.43 801.087 206.67C801.247 206.91 801.327 207.24 801.327 207.66C801.327 208.46 801.137 209.08 800.757 209.52C799.897 210.58 798.967 211.45 797.967 212.13C796.987 212.81 795.867 213.15 794.607 213.15C793.547 213.15 792.687 212.77 792.027 212.01C790.887 212.75 789.697 213.13 788.457 213.15C788.197 217.01 787.607 220.23 786.687 222.81C785.767 225.41 784.417 226.71 782.637 226.71C781.557 226.71 780.757 226.32 780.237 225.54C779.717 224.76 779.457 223.68 779.457 222.3C779.457 220.34 779.907 218.05 780.807 215.43C781.707 212.83 783.097 209.96 784.977 206.82C784.977 203.9 784.957 201.87 784.917 200.73C784.897 200.15 785.127 199.69 785.607 199.35C786.087 199.01 786.687 198.84 787.407 198.84C787.827 198.84 788.127 198.93 788.307 199.11C788.507 199.27 788.617 199.6 788.637 200.1C788.637 200.6 788.647 200.97 788.667 201.21C789.307 200.41 789.937 199.84 790.557 199.5C791.177 199.14 791.837 198.96 792.537 198.96C793.657 198.96 794.567 199.41 795.267 200.31C795.987 201.21 796.347 202.39 796.347 203.85C796.347 204.91 796.177 205.94 795.837 206.94C795.497 207.94 795.027 208.85 794.427 209.67C794.847 209.79 795.197 209.85 795.477 209.85C796.137 209.85 796.767 209.61 797.367 209.13C797.967 208.65 798.737 207.85 799.677 206.73C799.917 206.45 800.187 206.31 800.487 206.31ZM788.607 210.27C789.327 210.11 789.987 209.72 790.587 209.1C791.207 208.46 791.697 207.68 792.057 206.76C792.417 205.82 792.597 204.84 792.597 203.82C792.597 203.22 792.477 202.77 792.237 202.47C791.997 202.15 791.677 201.99 791.277 201.99C790.557 201.99 789.687 202.75 788.667 204.27C788.647 205.15 788.637 206.44 788.637 208.14C788.637 209.06 788.627 209.77 788.607 210.27ZM782.877 223.77C783.417 223.77 783.867 222.59 784.227 220.23C784.587 217.89 784.817 214.97 784.917 211.47C784.057 213.47 783.377 215.38 782.877 217.2C782.377 219.02 782.127 220.55 782.127 221.79C782.127 222.43 782.207 222.92 782.367 223.26C782.507 223.6 782.677 223.77 782.877 223.77ZM802.601 213.15C801.361 213.15 800.371 212.7 799.631 211.8C798.891 210.9 798.521 209.72 798.521 208.26C798.521 206.66 798.891 205.15 799.631 203.73C800.371 202.29 801.351 201.14 802.571 200.28C803.811 199.4 805.121 198.96 806.501 198.96C806.941 198.96 807.231 199.05 807.371 199.23C807.531 199.39 807.661 199.69 807.761 200.13C808.181 200.05 808.621 200.01 809.081 200.01C810.061 200.01 810.551 200.36 810.551 201.06C810.551 201.48 810.401 202.48 810.101 204.06C809.641 206.36 809.411 207.96 809.411 208.86C809.411 209.16 809.481 209.4 809.621 209.58C809.781 209.76 809.981 209.85 810.221 209.85C810.601 209.85 811.061 209.61 811.601 209.13C812.141 208.63 812.871 207.83 813.791 206.73C814.031 206.45 814.301 206.31 814.601 206.31C814.861 206.31 815.061 206.43 815.201 206.67C815.361 206.91 815.441 207.24 815.441 207.66C815.441 208.46 815.251 209.08 814.871 209.52C814.051 210.54 813.181 211.4 812.261 212.1C811.341 212.8 810.451 213.15 809.591 213.15C808.931 213.15 808.321 212.93 807.761 212.49C807.221 212.03 806.811 211.41 806.531 210.63C805.491 212.31 804.181 213.15 802.601 213.15ZM803.681 210.12C804.121 210.12 804.541 209.86 804.941 209.34C805.341 208.82 805.631 208.13 805.811 207.27L806.921 201.75C806.081 201.77 805.301 202.09 804.581 202.71C803.881 203.31 803.321 204.11 802.901 205.11C802.481 206.11 802.271 207.17 802.271 208.29C802.271 208.91 802.391 209.37 802.631 209.67C802.891 209.97 803.241 210.12 803.681 210.12ZM830.703 206.31C830.963 206.31 831.163 206.43 831.303 206.67C831.463 206.91 831.543 207.24 831.543 207.66C831.543 208.46 831.353 209.08 830.973 209.52C830.313 210.3 829.733 210.93 829.233 211.41C828.753 211.87 828.153 212.28 827.433 212.64C826.733 212.98 825.933 213.15 825.033 213.15C823.853 213.15 823.013 212.69 822.513 211.77C822.013 210.83 821.763 209.42 821.763 207.54C821.763 206.6 821.803 205.69 821.883 204.81H821.823C821.023 207.47 820.033 209.52 818.853 210.96C817.693 212.4 816.363 213.12 814.863 213.12C813.843 213.12 813.043 212.75 812.463 212.01C811.883 211.27 811.593 210.34 811.593 209.22C811.593 208.22 811.823 207.41 812.283 206.79C812.743 206.17 813.393 205.86 814.233 205.86C814.613 205.86 814.893 205.94 815.073 206.1C815.273 206.26 815.353 206.48 815.312 206.76C815.153 207.72 815.073 208.38 815.073 208.74C815.073 209.46 815.253 209.82 815.613 209.82C815.813 209.82 816.033 209.67 816.273 209.37C816.533 209.07 816.963 208.34 817.563 207.18C818.023 206.3 818.493 205.31 818.973 204.21C819.473 203.11 819.883 202.13 820.203 201.27C820.523 200.43 820.893 199.86 821.313 199.56C821.733 199.24 822.333 199.08 823.113 199.08C823.873 199.08 824.433 199.23 824.793 199.53C825.153 199.83 825.333 200.32 825.333 201L825.273 203.22C825.193 204.9 825.153 206.11 825.153 206.85C825.153 208.95 825.583 210 826.443 210C826.803 210 827.153 209.83 827.493 209.49C827.853 209.15 828.403 208.53 829.143 207.63L829.893 206.73C830.133 206.45 830.403 206.31 830.703 206.31ZM844.534 206.37C844.794 206.37 844.994 206.5 845.134 206.76C845.294 207 845.374 207.31 845.374 207.69C845.374 208.15 845.304 208.51 845.164 208.77C845.024 209.03 844.804 209.26 844.504 209.46C842.784 210.62 841.524 211.48 840.724 212.04L838.804 213.33C838.044 217.47 837.044 220.72 835.804 223.08C834.584 225.46 833.024 226.65 831.124 226.65C830.104 226.65 829.274 226.33 828.634 225.69C827.994 225.07 827.674 224.25 827.674 223.23C827.674 221.81 828.234 220.28 829.354 218.64C830.474 217.02 832.574 215.02 835.654 212.64L835.834 211.47C835.494 212.01 835.044 212.43 834.484 212.73C833.944 213.01 833.404 213.15 832.864 213.15C831.624 213.15 830.634 212.7 829.894 211.8C829.154 210.9 828.784 209.72 828.784 208.26C828.784 206.66 829.154 205.15 829.894 203.73C830.634 202.29 831.614 201.14 832.834 200.28C834.074 199.4 835.384 198.96 836.764 198.96C837.204 198.96 837.494 199.05 837.634 199.23C837.794 199.39 837.924 199.69 838.024 200.13C838.404 200.05 838.844 200.01 839.344 200.01C839.844 200.01 840.194 200.09 840.394 200.25C840.614 200.39 840.724 200.68 840.724 201.12C840.724 201.36 840.714 201.55 840.694 201.69C840.614 202.31 840.364 203.88 839.944 206.4C839.864 206.88 839.774 207.41 839.674 207.99C839.594 208.55 839.504 209.15 839.404 209.79C840.944 208.59 842.424 207.53 843.844 206.61C844.104 206.45 844.334 206.37 844.534 206.37ZM833.944 210.12C834.404 210.12 834.844 209.84 835.264 209.28C835.684 208.72 835.984 207.92 836.164 206.88L837.124 201.75C836.304 201.77 835.544 202.09 834.844 202.71C834.144 203.31 833.584 204.11 833.164 205.11C832.744 206.11 832.534 207.17 832.534 208.29C832.534 208.91 832.654 209.37 832.894 209.67C833.154 209.97 833.504 210.12 833.944 210.12ZM831.454 223.74C831.954 223.74 832.514 223.14 833.134 221.94C833.774 220.74 834.384 218.83 834.964 216.21C833.424 217.53 832.314 218.72 831.634 219.78C830.954 220.84 830.614 221.77 830.614 222.57C830.614 222.91 830.674 223.19 830.794 223.41C830.934 223.63 831.154 223.74 831.454 223.74ZM858.568 206.37C858.828 206.37 859.028 206.5 859.168 206.76C859.328 207 859.408 207.31 859.408 207.69C859.408 208.15 859.338 208.51 859.198 208.77C859.058 209.03 858.838 209.26 858.538 209.46L852.778 213.33C852.018 217.47 851.018 220.72 849.778 223.08C848.558 225.46 846.998 226.65 845.098 226.65C844.078 226.65 843.248 226.33 842.608 225.69C841.968 225.07 841.648 224.25 841.648 223.23C841.648 222.29 841.858 221.33 842.278 220.35C842.718 219.37 843.518 218.24 844.678 216.96C845.858 215.7 847.518 214.25 849.658 212.61L849.748 211.92C849.888 211.18 850.048 210.12 850.228 208.74C849.828 210.18 849.268 211.28 848.548 212.04C847.828 212.78 847.068 213.15 846.268 213.15C845.368 213.15 844.628 212.74 844.048 211.92C843.488 211.08 843.208 210.04 843.208 208.8C843.208 207.3 843.308 205.93 843.508 204.69C843.708 203.43 844.038 202.1 844.498 200.7C844.698 200.1 844.978 199.67 845.338 199.41C845.698 199.15 846.268 199.02 847.048 199.02C847.488 199.02 847.788 199.09 847.948 199.23C848.128 199.37 848.218 199.58 848.218 199.86C848.218 200.02 848.108 200.56 847.888 201.48C847.688 202.22 847.528 202.89 847.408 203.49C847.248 204.31 847.108 205.1 846.988 205.86C846.868 206.6 846.808 207.21 846.808 207.69C846.808 208.45 847.018 208.83 847.438 208.83C847.738 208.83 848.108 208.53 848.548 207.93C849.008 207.33 849.488 206.42 849.988 205.2C850.508 203.98 851.008 202.48 851.488 200.7C851.648 200.1 851.888 199.67 852.208 199.41C852.548 199.15 853.048 199.02 853.708 199.02C854.168 199.02 854.488 199.08 854.668 199.2C854.848 199.32 854.938 199.52 854.938 199.8C854.938 200.3 854.678 202.02 854.158 204.96L853.378 209.79C854.918 208.63 856.418 207.57 857.878 206.61C858.138 206.45 858.368 206.37 858.568 206.37ZM845.428 223.74C845.928 223.74 846.488 223.16 847.108 222C847.728 220.84 848.348 218.91 848.968 216.21C847.428 217.51 846.308 218.69 845.608 219.75C844.928 220.83 844.588 221.77 844.588 222.57C844.588 222.91 844.648 223.19 844.768 223.41C844.908 223.63 845.128 223.74 845.428 223.74ZM872.601 206.37C872.861 206.37 873.061 206.5 873.201 206.76C873.361 207 873.441 207.31 873.441 207.69C873.441 208.15 873.371 208.51 873.231 208.77C873.091 209.03 872.871 209.26 872.571 209.46L866.811 213.33C866.051 217.47 865.051 220.72 863.811 223.08C862.591 225.46 861.031 226.65 859.131 226.65C858.111 226.65 857.281 226.33 856.641 225.69C856.001 225.07 855.681 224.25 855.681 223.23C855.681 222.29 855.891 221.33 856.311 220.35C856.751 219.37 857.551 218.24 858.711 216.96C859.891 215.7 861.551 214.25 863.691 212.61L863.781 211.92C863.921 211.18 864.081 210.12 864.261 208.74C863.861 210.18 863.301 211.28 862.581 212.04C861.861 212.78 861.101 213.15 860.301 213.15C859.401 213.15 858.661 212.74 858.081 211.92C857.521 211.08 857.241 210.04 857.241 208.8C857.241 207.3 857.341 205.93 857.541 204.69C857.741 203.43 858.071 202.1 858.531 200.7C858.731 200.1 859.011 199.67 859.371 199.41C859.731 199.15 860.301 199.02 861.081 199.02C861.521 199.02 861.821 199.09 861.981 199.23C862.161 199.37 862.251 199.58 862.251 199.86C862.251 200.02 862.141 200.56 861.921 201.48C861.721 202.22 861.561 202.89 861.441 203.49C861.281 204.31 861.141 205.1 861.021 205.86C860.901 206.6 860.841 207.21 860.841 207.69C860.841 208.45 861.051 208.83 861.471 208.83C861.771 208.83 862.141 208.53 862.581 207.93C863.041 207.33 863.521 206.42 864.021 205.2C864.541 203.98 865.041 202.48 865.521 200.7C865.681 200.1 865.921 199.67 866.241 199.41C866.581 199.15 867.081 199.02 867.741 199.02C868.201 199.02 868.521 199.08 868.701 199.2C868.881 199.32 868.971 199.52 868.971 199.8C868.971 200.3 868.711 202.02 868.191 204.96L867.411 209.79C868.951 208.63 870.451 207.57 871.911 206.61C872.171 206.45 872.401 206.37 872.601 206.37ZM859.461 223.74C859.961 223.74 860.521 223.16 861.141 222C861.761 220.84 862.381 218.91 863.001 216.21C861.461 217.51 860.341 218.69 859.641 219.75C858.961 220.83 858.621 221.77 858.621 222.57C858.621 222.91 858.681 223.19 858.801 223.41C858.941 223.63 859.161 223.74 859.461 223.74ZM889.296 206.31C889.556 206.31 889.756 206.43 889.896 206.67C890.056 206.91 890.136 207.24 890.136 207.66C890.136 208.46 889.946 209.08 889.566 209.52C888.906 210.3 888.326 210.93 887.826 211.41C887.346 211.87 886.746 212.28 886.026 212.64C885.326 212.98 884.526 213.15 883.626 213.15C882.446 213.15 881.606 212.69 881.106 211.77C880.606 210.83 880.356 209.42 880.356 207.54C880.356 206.6 880.396 205.69 880.476 204.81H880.416C879.616 207.47 878.626 209.52 877.446 210.96C876.286 212.4 874.956 213.12 873.456 213.12C872.436 213.12 871.636 212.75 871.056 212.01C870.476 211.27 870.186 210.34 870.186 209.22C870.186 208.22 870.416 207.41 870.876 206.79C871.336 206.17 871.986 205.86 872.826 205.86C873.206 205.86 873.486 205.94 873.666 206.1C873.866 206.26 873.946 206.48 873.906 206.76C873.746 207.72 873.666 208.38 873.666 208.74C873.666 209.46 873.846 209.82 874.206 209.82C874.406 209.82 874.626 209.67 874.866 209.37C875.126 209.07 875.556 208.34 876.156 207.18C876.616 206.3 877.086 205.31 877.566 204.21C878.066 203.11 878.476 202.13 878.796 201.27C879.116 200.43 879.486 199.86 879.906 199.56C880.326 199.24 880.926 199.08 881.706 199.08C882.466 199.08 883.026 199.23 883.386 199.53C883.746 199.83 883.926 200.32 883.926 201L883.866 203.22C883.786 204.9 883.746 206.11 883.746 206.85C883.746 208.95 884.176 210 885.036 210C885.396 210 885.746 209.83 886.086 209.49C886.446 209.15 886.996 208.53 887.736 207.63L888.486 206.73C888.726 206.45 888.996 206.31 889.296 206.31Z" fill="#FF6B00"/>
<path d="M843.025 70.3815C842.951 69.6111 842.649 68.8996 842.342 68.2112C839.851 62.6445 835.608 59.215 829.598 58.2015C820.723 56.7017 812.21 62.8339 810.669 71.6996C809.118 80.6292 814.954 89.2389 823.802 90.882C829.373 91.9186 834.323 90.4828 838.495 86.5874C839.181 85.945 839.895 85.4024 840.839 85.2233C842.659 84.8778 844.43 85.6712 845.308 87.2349C846.214 88.8473 845.968 90.8078 844.642 92.1643C842.674 94.181 840.409 95.8011 837.865 97.0168C823.256 103.989 806.06 95.622 802.671 79.8076C799.738 66.115 808.504 53.4462 821.181 50.4057C821.777 50.2623 822.376 50.1267 822.983 50.0525C823.451 49.9962 823.63 49.7914 823.579 49.3359C823.558 49.1541 823.576 48.9673 823.576 48.783C823.569 48.0766 823.569 48.0766 822.872 47.9743C822.245 47.8821 822.041 47.6876 821.941 47.035C821.698 45.4277 821.455 43.8204 821.232 42.2106C821.112 41.3481 821.403 41.0102 822.284 41.0077C825.447 40.9974 828.608 40.9974 831.771 41.0077C832.613 41.0102 832.895 41.3148 832.787 42.1492C832.572 43.8204 832.324 45.4891 832.066 47.1553C831.974 47.7465 831.761 47.9359 831.027 47.9538C830.507 47.9666 830.433 48.1816 830.43 48.6218C830.417 49.8784 830.4 49.8861 831.61 50.1241C833.816 50.5567 835.946 51.2272 837.95 52.2535C838.418 52.4941 838.666 52.402 838.912 51.9899C839.101 51.6751 839.319 51.3731 839.554 51.0916C839.915 50.6616 840.299 50.572 840.768 50.8945C842.183 51.8696 843.58 52.8678 844.962 53.889C845.426 54.2294 845.443 54.58 845.124 55.0944C844.896 55.4579 844.65 55.8136 844.381 56.1463C844.156 56.4253 844.21 56.6172 844.45 56.8501C845.246 57.618 845.981 58.4446 846.657 59.3225C849.677 63.2409 851.435 67.6481 851.814 72.5928C851.885 73.509 852.016 74.4227 851.832 75.3441C851.45 77.256 849.94 78.6073 848.003 78.7455C847.849 78.7558 847.696 78.7532 847.542 78.7532C840.757 78.7532 833.97 78.7583 827.185 78.7506C825.048 78.7481 823.433 77.4761 822.967 75.4772C822.402 73.056 824.216 70.6118 826.701 70.4839C827.62 70.4353 828.544 70.466 829.465 70.466C833.642 70.466 837.817 70.466 841.993 70.4634C842.326 70.4583 842.667 70.5223 843.025 70.3815Z" fill="#ED1E42"/>
<path d="M787.776 74.7765C788.089 75.0068 788.393 75.1757 788.631 75.4112C791.764 78.5285 794.884 81.6612 798.016 84.781C798.892 85.6512 799.334 86.675 799.294 87.9188C799.24 89.5824 798.457 90.8032 796.982 91.5045C795.483 92.2186 793.998 92.0778 792.642 91.0745C792.347 90.857 792.089 90.5882 791.828 90.3298C787.679 86.1861 783.538 82.0348 779.387 77.8963C778.481 76.9929 777.874 75.9819 777.877 74.6588C777.877 73.525 778.256 72.5575 779.049 71.7539C780.086 70.7071 781.13 69.668 782.172 68.6263C785.537 65.2633 788.892 61.8901 792.273 58.5399C794.193 56.6383 797.29 57.0247 798.707 59.3C799.672 60.8484 799.493 62.9087 798.234 64.2498C797.33 65.2121 796.378 66.1258 795.444 67.06C793.143 69.3609 790.843 71.6617 788.544 73.9652C788.332 74.175 788.132 74.4003 787.776 74.7765Z" fill="#36BFC7"/>
<path d="M887.003 61.3393C887.023 62.6036 886.647 63.5557 885.877 64.3287C881.454 68.7615 877.039 73.1994 872.591 77.6066C870.968 79.2139 868.486 79.2114 866.868 77.6092C862.399 73.1789 857.949 68.7333 853.521 64.2621C851.952 62.6779 852.047 60.1262 853.634 58.5394C855.208 56.9654 857.764 56.8963 859.369 58.4447C861.092 60.1057 862.763 61.8205 864.457 63.5122C865.977 65.0299 867.495 66.5502 869.018 68.0679C869.786 68.8331 869.658 68.8485 870.421 68.0884C873.569 64.9429 876.719 61.8 879.86 58.6469C880.679 57.8279 881.628 57.3595 882.805 57.3493C885.214 57.3262 887.01 59.0948 887.003 61.3393Z" fill="#36BFC7"/>
<path d="M767.005 74.533C767.005 70.1437 766.995 65.7544 767.01 61.3651C767.018 59.3816 768.374 57.7795 770.312 57.3828C772.805 56.8709 775.162 58.7085 775.287 61.2653C775.297 61.4496 775.29 61.6339 775.29 61.8181C775.29 70.351 775.287 78.884 775.295 87.4169C775.295 88.3613 775.121 89.2417 774.596 90.0402C773.6 91.5502 771.73 92.2489 770.002 91.755C768.249 91.2534 767.02 89.7126 767.013 87.8852C766.99 83.4345 767.005 78.9838 767.005 74.533Z" fill="#FBAB18"/>
<path d="M873.861 86.744C873.82 87.3122 873.925 88.016 873.745 88.7173C873.213 90.8134 871.409 92.0777 869.193 91.8679C867.219 91.681 865.635 89.9381 865.579 87.8676C865.556 87.0409 865.558 86.2117 865.579 85.3824C865.638 83.0918 867.445 81.3412 869.733 81.3438C871.997 81.3463 873.809 83.1328 873.858 85.4157C873.868 85.815 873.861 86.2117 873.861 86.744Z" fill="#FBAB18"/>
</svg>
